<?xml version="1.0" encoding="utf-8"?>
<svg xmlns="http://www.w3.org/2000/svg" viewBox="0 0 66 10">
	<title>Cursive writing with the letters: Gnirevalc Yram.</title>
	<path d="m 43.076257,9.4239002 c -0.0732,-0.0582 -0.15753,-0.21122 -0.18747,-0.34002 -0.0461,-0.19844 -0.0207,-0.247 0.16629,-0.31811 0.26292,-0.1 0.37584,-0.047 0.37584,0.17629 0,0.0904 0.0304,0.16434 0.0675,0.16434 0.11994,0 0.65743,-0.61941 1.0653,-1.22767 0.21858,-0.32596 0.56843,-0.82126 0.77744,-1.10066 0.23878,-0.4247 0.55515,-0.79322 0.81377,-1.18371 0.0261,-0.0573 0.59416,-0.63663 0.35858,-0.63663 -0.008,0 -0.15386,0.0585 -0.32498,0.13 -0.42944,0.17943 -0.86301,0.0932 -0.93298,-0.18562 -0.12545,-0.49983 0.47235,-1.88424 1.11114,-2.57319 0.17818,-0.19217 0.35443,-0.4032 0.39167,-0.46896 0.0815,-0.14398 0.22862,-0.15814 0.22862,-0.022 0,0.0908 -0.19583,0.3765 -0.79112,1.15421 -0.52831,0.69019 -0.74961,1.56179 -0.46805,1.84336 0.82486,0.192 1.61059,-0.81995 2.124,-1.39857 0.12942,-0.14586 0.65915,-1.00886 0.65915,-1.01287 0,-0.11026 1.26776,-1.68328998 1.55706,-1.93197998 0.12152,-0.10447 0.22094,-0.22534 0.22094,-0.2686 0,-0.12918 0.59441,-0.29325 0.69565,-0.19202 0.12525,0.12525 -0.0431,0.55839 -0.38109,0.98035998 -0.35152,0.4389 -0.58205,0.79113 -0.71233,1.08836 -0.6522,0.67828 -1.32123,1.43418 -2.12389,2.00863 -0.19946,0.1324 -0.53603,0.49882 -0.77226,0.7956 -0.36837,0.46279 -0.55807,0.74018 -0.84217,1.15326 -0.12197,0.1626 -0.41283,0.60522 -0.64634,0.9836 -0.73238,1.18671 -1.05825,1.62355 -1.53865,2.06261 -0.4794,0.43815 -0.66108,0.50335 -0.89158,0.31997 z m 5.8586,-6.64199 c 0.49031,-0.45165 1.11381,-1.29035 1.35611,-1.82415998 0.36102,-0.79535 0.13807,-0.71056 -0.47307,0.17990998 -0.21153,0.30822 -0.53277,0.74862 -0.71385,0.97865 -0.0279,0.0355 -0.70616,1.06342 -0.64011,1.06342 0.0215,0 0.23343,-0.17902 0.47096,-0.39782 z m -40.809938,4.72338 c 0,-0.089 0.219075,-0.43124 0.486834,-0.76058 0.628339,-0.77286 1.199147,-1.8282 1.062655,-1.96469 -0.103051,-0.10305 -0.785145,0.30249 -1.844641,1.09674 -0.681233,0.51068 -1.740988,1.05803 -1.845727,0.95329 -0.103637,-0.10363 0.436485,-0.58659 0.876185,-0.78345 0.176921,-0.0792 0.581479,-0.31147 0.899018,-0.51612 0.317538,-0.20465 0.699044,-0.44582 0.84779,-0.53592 0.148745,-0.0901 0.44835,-0.27274 0.665787,-0.40587 0.339905,-0.2081 0.425156,-0.22845 0.607976,-0.14515 0.186146,0.0848 0.20647,0.13487 0.163143,0.40187 -0.02722,0.16774 -0.146287,0.44466 -0.26459,0.61537 -0.201262,0.29043 -0.27466,0.51295 -0.16919,0.51295 0.04893,0 0.08556,-0.0273 0.54676,-0.40808 0.357796,-0.29538 1.470597,-0.86192 1.692994,-0.86192 0.08782,0 0.176438,0.0286 0.196922,0.0635 0.02048,0.0349 -0.110618,0.36474 -0.291336,0.73291 -0.314733,0.69061 -0.427868,1.063 -0.318312,1.29853 0.12241,0.26316 1.854317,-0.85358 2.330886,-1.52344 0.344021,-0.29728 1.182648,-1.43017 1.130175,-0.96834 -0.06346,0.55849 -0.638146,0.74682 -0.850394,1.11332 -0.484324,0.76745 -0.301316,0.7941 -0.104672,0.99074 0.186395,0.1864 0.238266,0.17864 0.658744,-0.0985 0.1397,-0.0921 0.316802,-0.19643 0.393561,-0.2319 0.164519,-0.076 1.934772,-1.64991 1.934772,-1.72016 0,-0.10409 0.352363,-0.41867 0.468965,-0.41867 0.162803,0 0.160065,0.3066 -0.0033,0.36929 -0.06985,0.0268 -0.127,0.13803 -0.127,0.24716 0,0.17507 0.03882,0.19781 0.329822,0.19316 0.18888,-0.003 0.399767,-0.0686 0.4935,-0.15344 0.177552,-0.16073 0.408156,-0.19433 0.484616,-0.0706 0.02636,0.0426 -0.110079,0.2128 -0.303203,0.37811 -0.458596,0.39254 -0.678692,0.76055 -0.762231,1.27449 -0.114793,0.70621 0.122294,0.7882 1.255959,0.43432 0.363295,-0.1134 0.801583,-0.2316 0.973974,-0.26266 0.326916,-0.0589 0.456524,-0.19935 0.661168,-0.71648 0.152903,-0.38639 0.64678,-0.982 0.992101,-1.19647 0.337021,-0.20932 0.754812,-0.18757 0.7166,0.0373 -0.05355,0.31513 -0.786042,1.37921 -1.115112,1.61991 -0.227298,0.16625 -0.340528,0.31405 -0.340528,0.4445 0,0.18333 0.03283,0.19542 0.530621,0.19542 0.507915,0 0.549258,-0.0163 0.966161,-0.381 0.239547,-0.20955 0.453626,-0.381 0.475731,-0.381 0.02211,0 0.263608,-0.14488 0.536673,-0.32196 0.891196,-0.57793 2.147481,-1.03546 2.147481,-0.7821 0,0.0447 -0.1883,0.25741 -0.418436,0.47268 -0.927704,0.86775 -1.048865,1.85524 -0.155058,1.26375 0.375804,-0.2487 1.268034,-1.11267 1.548344,-1.49931 0.13202,-0.1821 0.2773,-0.25121 0.67615,-0.32165 0.2794,-0.0494 0.61885,-0.11211 0.75434,-0.13949 0.2081,-0.042 0.23768,-0.0272 0.19051,0.0957 -0.0307,0.08 -0.0558,0.16145 -0.0558,0.18093 0,0.0195 -0.0476,0.0356 -0.10584,0.0359 -0.0582,2.8e-4 -0.21458,0.0572 -0.34748,0.12655 -0.13291,0.0693 -0.2714,0.10763 -0.30777,0.0852 -0.15577,-0.0963 -0.56945,0.15866 -0.79344,0.48896 -0.13321,0.19642 -0.45238,0.50954 -0.70927,0.6958 -0.25689,0.18627 -0.54796,0.41814 -0.64681,0.51528 -0.205835,0.20226 -0.683144,0.38642 -0.842766,0.32516 -0.184903,-0.071 -0.414158,-0.54211 -0.362985,-0.746 0.02643,-0.1053 0.186109,-0.37226 0.354844,-0.59325 0.168735,-0.22098 0.290187,-0.4184 0.269893,-0.43869 -0.03661,-0.0366 -0.277671,0.0659 -0.97958,0.41656 -0.200673,0.10025 -0.581673,0.36611 -0.846667,0.5908 -0.708833,0.60103 -0.883431,0.67361 -1.522451,0.63293 -0.464859,-0.0296 -0.57791,-0.0691 -0.741347,-0.25913 -0.18541,-0.21555 -0.205372,-0.21974 -0.51776,-0.1088 -0.529513,0.18806 -1.602695,0.46798 -2.006256,0.52329 -0.33962,0.0465 -0.389532,0.0302 -0.521414,-0.1711 -0.195695,-0.29867 -0.139929,-1.08021 0.111496,-1.56258 0.102443,-0.19654 0.18626,-0.37032 0.18626,-0.38617 0,-0.0159 -0.189679,-0.054 -0.421508,-0.0847 l -0.421507,-0.0559 -0.678146,0.65884 c -0.617758,0.60017 -1.661435,1.25137 -1.809323,1.2648 -0.147888,0.0134 -0.237618,-0.0258 -0.373683,-0.13937 -0.215157,-0.17966 -0.356427,-0.4097 -0.377006,-0.70365 -0.0504,0.0331 -0.160443,0.12537 -0.249622,0.21137 -0.05175,0.0499 -0.286746,0.23335 -0.601111,0.4724 -0.584629,0.44457 -1.081663,0.61967 -1.326082,0.46716 -0.166853,-0.10411 -0.244167,-0.20017 -0.242773,-0.49433 7.4e-5,-0.0625 0.03541,-0.18999 0.04964,-0.32335 0.01423,-0.13336 0.139816,-0.44435 0.279068,-0.69109 0.275225,-0.48767 0.237741,-0.60766 -0.130199,-0.41677 -0.130042,0.0675 -0.275786,0.12267 -0.323876,0.12267 -0.143668,0 -0.815036,0.58288 -1.682226,1.4605 -0.801489,0.81113 -1.089649,0.98665 -1.089649,0.66372 z m 12.688272,-1.60787 c 0.250458,-0.17834 0.858394,-1.0182 0.858394,-1.18586 0,-0.16781 -0.660829,0.49944 -0.935587,0.94467 -0.27289,0.44221 -0.260312,0.48151 0.07719,0.24119 z m 15.463396,1.52535 c -0.4196,-0.19318 -0.66948,-0.59131 -0.59214,-0.94343 0.076,-0.34611 -0.11523,-0.3334 -0.60451,0.0402 -0.77192,0.58941 -1.36722,0.77536 -1.98236,0.61922 -0.48665,-0.12353 -0.78559,-0.45413 -0.72854,-0.80571 l 0.0453,-0.27911 -0.25723,0.19274 c -0.88769,0.66513 -2.25998,1.27005 -2.51416,1.10826 -0.15514,-0.0987 -0.18412,-0.64674 -0.0574,-1.08486 0.073,-0.25242 0.071,-0.2517 -0.31382,0.11493 -0.52317,0.49837 -1.16087,0.9434 -1.35183,0.9434 -0.0928,0 -0.1925,-0.0946 -0.24482,-0.23225 -0.2698,-0.70962 1.58562,-2.7466 2.39695,-2.63149 0.13958,0.0198 0.20068,0.0924 0.22013,0.26163 l 0.0269,0.23422 0.24741,-0.14615 c 0.19571,-0.11562 0.26916,-0.12441 0.3515,-0.0421 0.0823,0.0823 0.0331,0.17299 -0.23566,0.43384 -0.36608,0.35533 -0.76079,1.05898 -0.85149,1.51799 l -0.0563,0.28472 0.37233,-0.0616 c 0.40797,-0.0675 1.24279,-0.45168 1.64233,-0.7558 0.1397,-0.10633 0.34354,-0.22164 0.45297,-0.25624 0.12409,-0.0392 0.26042,-0.20183 0.36225,-0.43201 0.0898,-0.203 0.19794,-0.39053 0.24033,-0.41673 0.0424,-0.0262 0.19177,-0.24685 0.33195,-0.49034 0.14019,-0.24349 0.36442,-0.56154 0.49828,-0.70677 0.13386,-0.14524 0.32539,-0.40304 0.42561,-0.57291 0.10022,-0.16986 0.22211,-0.35583 0.27087,-0.41327 0.13173,-0.15517 0.83065,-1.12501 1.05129,-1.34962 0.22387,-0.2279 0.88061,-0.68490998 1.15011,-0.59305998 0.34016,0.11589998 0.28478,0.44792998 -0.19293,1.15670998 -0.64755,0.96078 -1.95867,2.41991 -2.78059,3.0945 -0.74013,0.60747 -0.91788,0.84018 -0.8637,1.1308 0.0652,0.35007 0.12686,0.40758 0.50975,0.4758 0.4548,0.081 1.10184,-0.16233 2.31147,-0.86942 0.32529,-0.19014 0.95924,-0.9046 1.22862,-1.24946 0.0855,-0.10942 0.36967,-0.27547 0.85339,-0.37353 0.34937,-0.0708 0.52512,0.12082 0.38759,0.42265 -0.0524,0.11504 -0.13822,0.20916 -0.19067,0.20916 -0.0525,0 -0.26473,0.1143 -0.47173,0.254 -0.20699,0.1397 -0.42415,0.254 -0.48256,0.254 -0.0584,0 -0.24701,0.12897 -0.41909,0.28659 -0.28983,0.26547 -0.31288,0.32175 -0.31288,0.76381 0,0.42149 0.0237,0.48804 0.20305,0.56975 0.39224,0.17872 0.97907,-0.0999 2.46395,-1.16971 0.2794,-0.20131 0.67945,-0.45751 0.889,-0.56933 0.20955,-0.11183 0.44432,-0.3118 0.52171,-0.44438 0.37015,-0.63414 0.72399,-0.82822 0.63246,-0.34689 -0.064,0.33636 -0.2436,0.49478 -1.87384,1.65249 -0.6985,0.49604 -1.2827,0.93199 -1.29822,0.96878 -0.0155,0.0368 -0.0837,0.0669 -0.15154,0.0669 -0.0678,0 -0.27268,0.0762 -0.45524,0.16934 -0.40008,0.20411 -0.38251,0.20389 -0.80433,0.01 z m -7.82847,-0.76826 c 0.16123,-0.13781 0.33828,-0.25211 0.39346,-0.254 0.18326,-0.006 1.20227,-1.12104 1.25842,-1.37665 0.0299,-0.13616 0.0355,-0.26646 0.0124,-0.28954 -0.0231,-0.0231 -0.22674,0.0528 -0.45256,0.16853 -0.64743,0.33192 -1.63825,1.4593 -1.63825,1.86404 0,0.19716 0.0931,0.17264 0.42653,-0.11238 z m 5.45742,-1.99588 c 0.29975,-0.30421 0.59555,-0.62527 0.65733,-0.71348 0.0618,-0.0882 0.35524,-0.42034 0.65212,-0.73807 0.55534,-0.59433 1.30713,-1.59394 1.27327,-1.76703 -0.13116,-0.67043998 -1.6262,1.22118 -1.85381,1.64613 -0.065,0.12131 -0.14569,0.23961 -0.17935,0.2629 -0.0635,0.0439 -0.44682,0.57616 -0.80282,1.11471 -0.11284,0.17071 -0.24481,0.33489 -0.29326,0.36483 -0.0891,0.055 -0.12612,0.38312 -0.0433,0.38312 0.0246,0 0.29006,-0.24889 0.58981,-0.5531 z M 3.64654,6.9981002 c -0.307013,-0.28679 -0.317084,-0.34609 -0.103567,-0.60978 0.140674,-0.17372 0.185407,-0.18497 0.381,-0.0959 0.121887,0.0555 0.221613,0.1567 0.221613,0.2248 0,0.0681 0.0405,0.14884 0.09,0.17944 0.123635,0.0764 0.417998,-0.20533 0.417998,-0.40008 0,-0.0874 0.06175,-0.18256 0.137222,-0.21152 0.07547,-0.029 0.294546,-0.22253 0.486833,-0.43015 0.610689,-0.65939 0.617318,-0.78993 0.02995,-0.58979 -0.393481,0.13407 -0.641714,0.0816 -1.035006,-0.21895 -0.155234,-0.11861 -0.208105,-0.10907 -0.635,0.11457 -0.649606,0.34032 -1.314225,0.59412 -1.872007,0.71487 -0.406979,0.0881 -0.556836,0.0815 -1.04638597,-0.0458 -0.314259,-0.0818 -0.609631,-0.18691 -0.656382,-0.23366 -0.185398,-0.1854 0.03564,-0.24931 0.716511,-0.20717 0.57108297,0.0353 0.81566497,0.008 1.33426397,-0.1492 0.34925,-0.10586 0.7112,-0.20124 0.804333,-0.21195 0.09313,-0.0107 0.397934,-0.11715 0.677334,-0.23654 l 0.508,-0.21707 0.08467,-0.53375 c 0.04743,-0.299 0.196377,-0.73424 0.338667,-0.98962 0.1397,-0.25074 0.629289,-0.90654 0.710317,-0.98906 0.637032,-0.64876 1.468186,-1.03529998 1.633806,-1.12591998 0.716069,-0.39179 1.084877,-0.41457 1.084877,-0.067 0,0.44043998 -1.107827,2.04051998 -1.757645,2.53863998 -0.127612,0.0978 -0.289172,0.23857 -0.359022,0.31278 -0.06985,0.0742 -0.38385,0.31681 -0.697777,0.53911 -0.496303,0.35144 -0.559436,0.42537 -0.483855,0.56659 0.119398,0.2231 0.680203,0.20758 1.202364,-0.0333 0.235751,-0.10874 0.888915,-0.63131 1.580882,-1.2648 0.648532,-0.59372 1.220227,-1.0795 1.270434,-1.0795 0.05021,0 0.09129,0.0866 0.09129,0.19241 0,0.17603 -0.09377,0.27724 -0.841515,0.90826 -1.138645,0.96089 -2.202048,2.00821 -2.20483,2.17148 -0.0022,0.13065 -0.631793,0.90787 -1.100477,1.35857 -0.445716,0.42862 -0.651445,0.45288 -1.008891,0.11898 z m 1.19049,-3.03611 c 0.01552,-0.0354 0.325158,-0.28646 0.688079,-0.55786 0.36292,-0.2714 0.753923,-0.64246 0.868895,-0.82459 0.278866,-0.26999 0.47444,-0.53797 0.701187,-0.83914 0.08099,0 0.437062,-0.68903 0.437062,-0.84573998 0,-0.14587 -0.131904,-0.0978 -0.73218,0.26675998 -0.88637,0.53834 -1.659672,1.28216 -1.959507,1.88482 -0.35413,0.71178 -0.407702,0.98016 -0.195649,0.98016 0.132177,0 0.192113,-0.0528 0.192113,-0.0644 z m 42.234557,2.91048 c 0,-0.0645 0.0857,-0.1751 0.1905,-0.24578 0.4387,-0.29596 1.44575,-1.38016 1.92037,-2.06747 0.40262,-0.58306 0.68313,-0.77503 0.68313,-0.46753 0,0.0893 -0.0952,0.27307 -0.21156,0.40837 -0.23129,0.26895 -0.27924,0.54234 -0.0951,0.54234 0.2442,0 0.72177,-0.25983 1.0787,-0.58689 0.35603,-0.32623 0.6673,-0.44462 0.6673,-0.2538 0,0.0498 -0.14802,0.26893 -0.32893,0.48683 -0.3789,0.45636 -0.7785,1.25372 -0.71337,1.42344 0.0244,0.0637 0.0986,0.11575 0.16478,0.11575 0.15307,0 1.1021,-0.47656 1.17098,-0.58802 0.0285,-0.0461 0.30749,-0.20439 0.62001,-0.35178 0.31251,-0.14739 0.74926,-0.39627 0.97056,-0.55308 0.54615,-0.387 1.04848,-0.38966 1.19006,-0.006 0.0457,0.12367 0.088,0.13472 0.22841,0.0596 0.0948,-0.0507 0.20965,-0.0692 0.25525,-0.041 0.15953,0.0986 0.0805,0.28849 -0.21341,0.51266 -0.16299,0.12431 -0.29634,0.27833 -0.29634,0.34226 0,0.0639 -0.0762,0.16382 -0.16933,0.22198 -0.0931,0.0582 -0.16933,0.19183 -0.16933,0.29705 0,0.36948 0.49483,0.23586 1.65486,-0.44689 0.37041,-0.218 0.85375,-0.52498 1.0741,-0.68218 0.22034,-0.15719 0.55372,-0.31028 0.74083,-0.3402 0.2931,-0.0469 0.34206,-0.0324 0.35362,0.10458 0.0273,0.32293 -0.0139,0.44714 -0.22289,0.67263 -0.35278,0.38066 -0.27348,0.47986 0.20601,0.25771 0.23092,-0.10699 0.46905,-0.23382 0.52916,-0.28186 0.28158,-0.22497 1.26903,-0.61292 1.56683,-0.61557 0.19738,-0.002 0.27676,0.29351 0.14643,0.54472 -0.0673,0.12965 -0.12229,0.25041 -0.12229,0.26837 0,0.0687 0.33103,0.0288 0.37688,-0.0453 0.0265,-0.0429 0.39195,-0.20096 0.8121,-0.35125 0.42015,-0.15029 0.78396,-0.3057 0.80846,-0.34534 0.11113,-0.17981 0.7119,-0.0218 0.7119,0.18723 0,0.0309 -0.20928,0.28042 -0.46505,0.55457 -0.51227,0.54905 -0.61182,0.87944 -0.26499,0.87944 0.11072,0 0.24358,-0.0509 0.29525,-0.11319 0.0517,-0.0623 0.36895,-0.22109 0.70506,-0.35296 0.38371,-0.15055 0.72521,-0.35616 0.9177,-0.55254 0.45486,-0.46405 0.69391,-0.59475 1.04218,-0.5698 0.17023,0.0122 0.30958,0.0435 0.30968,0.0696 4.8e-4,0.13632 -0.58201,0.60781 -1.18062,0.95563 -0.37289,0.21667 -0.69687,0.39394 -0.71995,0.39394 -0.0506,0 -0.92494,0.38557 -1.25996,0.55565 -0.13183,0.0669 -0.3069,0.12168 -0.38904,0.12168 -0.16709,0 -0.40314,-0.22943 -0.43553,-0.42333 -0.0295,-0.17655 0.1475,-0.58261 0.39592,-0.90831 l 0.20904,-0.27406 -0.27835,0.0509 c -0.15309,0.028 -0.37359,0.0978 -0.49001,0.15517 -0.22613,0.11138 -1.57798,0.81974 -1.97378,1.03424 -0.13096,0.071 -0.26119,0.10596 -0.2894,0.0777 -0.0716,-0.0716 0.14676,-0.46006 0.40545,-0.7213 0.27491,-0.27762 0.55285,-0.74751 0.48331,-0.81705 -0.0293,-0.0293 -0.1606,0.005 -0.29189,0.0764 -0.13128,0.0713 -0.45417,0.22362 -0.71753,0.33857 -0.26335,0.11494 -0.77037,0.4012 -1.1267,0.63613 -0.57138,0.37673 -0.89213,0.47314 -0.89213,0.26816 0,-0.18435 0.28627,-0.67945 0.58819,-1.01729 0.18727,-0.20955 0.3411,-0.41319 0.34182,-0.45254 7.3e-4,-0.0393 -0.16738,0.0273 -0.37358,0.14817 -0.2062,0.12084 -0.41835,0.21971 -0.47143,0.21971 -0.0531,0 -0.44012,0.22636 -0.86007,0.50302 -0.41995,0.27666 -1.0123,0.58338 -1.31634,0.68161 -0.52202,0.16864 -0.56169,0.17055 -0.71236,0.0342 -0.0878,-0.0794 -0.15956,-0.23375 -0.15956,-0.34295 0,-0.10919 -0.03,-0.19854 -0.0667,-0.19854 -0.0367,0 -0.26962,0.1905 -0.51762,0.42333 -0.4348,0.40821 -0.65834,0.49348 -0.97507,0.37195 -0.14656,-0.0562 -0.19351,-0.66379 -0.0578,-0.74768 0.0419,-0.0259 0.15546,-0.18148 0.2524,-0.34578 l 0.17625,-0.29873 -0.18322,0.0981 c -0.10077,0.0539 -0.35722,0.22275 -0.5699,0.37515 -0.44956,0.32215 -1.27902,0.71637 -1.50732,0.71637 -0.40353,0 -0.45835,-0.39375 -0.15323,-1.10067 0.11054,-0.25612 0.19088,-0.47587 0.17853,-0.48835 -0.0123,-0.0125 -0.1329,0.0349 -0.26789,0.10531 -0.28497,0.14862 -0.4909,0.16222 -0.70679,0.0467 -0.18161,-0.0972 -0.35441,0.0501 -0.93336,0.79563 -0.20829,0.26822 -0.50489,0.59847 -0.65911,0.73387 -0.29572,0.25965 -0.61317,0.3264 -0.61317,0.12893 z m 5.78459,-0.6043 c 0.95414,-0.57605 1.5667,-1.39651 1.09332,-1.46438 -0.13536,-0.0194 -0.35326,0.11429 -0.74084,0.45456 -0.30199,0.26514 -0.54907,0.52866 -0.54907,0.5856 0,0.057 -0.0762,0.1725 -0.16933,0.25678 -0.18208,0.16478 -0.22667,0.381 -0.0786,0.381 0.0499,0 0.24994,-0.0961 0.4445,-0.21356 z m -37.873258,-3.08344 c 0,-0.0438 0.03882,-0.10366 0.08628,-0.13299 0.04745,-0.0293 0.180016,-0.23831 0.294587,-0.46441 0.198318,-0.39136 0.451833,-0.57922 0.631665,-0.46807 0.158175,0.0978 -0.259912,0.78057 -0.592345,0.9674 -0.352779,0.19828 -0.420184,0.21401 -0.420184,0.0981 z"/>
</svg>
