<?xml version="1.0" encoding="utf-8"?>
<svg xmlns="http://www.w3.org/2000/svg" viewBox="0 0 562 82">
	<title>Cursive writing with the letters: Gnirevalc Yram.</title>
	<path d="m 371.35788,81.173683 c -0.63109,-0.501316 -1.35811,-1.819365 -1.61618,-2.928799 -0.39742,-1.70928 -0.17844,-2.127558 1.43356,-2.740071 2.26665,-0.861357 3.24012,-0.404838 3.24012,1.518495 0,0.778665 0.26209,1.415559 0.58187,1.415559 1.03404,0 5.66769,-5.33535 9.18392,-10.574661 1.88434,-2.807687 4.9004,-7.073998 6.70226,-9.48064 2.05853,-3.658191 4.78591,-6.83248 7.01546,-10.196002 0.225,-0.493555 5.12223,-5.483673 3.0913,-5.483673 -0.0689,0 -1.32643,0.5039 -2.80162,1.119767 -3.70218,1.545538 -7.43996,0.802786 -8.04317,-1.598853 -1.08148,-4.305336 4.07207,-16.230088 9.57905,-22.164427 1.53612,-1.655271 3.05555,-3.472999 3.37655,-4.039431 0.70264,-1.240187 1.97099,-1.362156 1.97099,-0.1895 0,0.782119 -1.6883,3.243021 -6.82025,9.941904 -4.55453,5.94502 -6.46234,13.452625 -4.03503,15.877956 7.11108,1.653814 13.8848,-7.062715 18.31088,-12.046716 1.11574,-1.256381 5.68249,-8.689913 5.68249,-8.724456 0,-0.949736 10.92932,-14.4991807 13.42333,-16.6412957 1.04763,-0.899862 1.90473,-1.940988 1.90473,-2.313612 0,-1.11270495 5.12436,-2.52593795 5.99716,-1.65398295 1.07976,1.07885295 -0.37158,4.80974595 -3.28538,8.44442595 -3.03044,3.7805057 -5.0178,6.8144767 -6.14094,9.3746967 -5.6226,5.842429 -11.39029,12.35345 -18.30995,17.301529 -1.7195,1.140439 -4.62107,4.296633 -6.65759,6.852977 -3.17571,3.986286 -4.81109,6.37561 -7.26028,9.933715 -1.05152,1.400575 -3.55901,5.213126 -5.5721,8.472337 -6.31379,10.221839 -9.1231,13.984602 -13.26461,17.76649 -4.13286,3.774049 -5.69911,4.335655 -7.68623,2.756097 z m 50.50663,-57.211431 c 4.22696,-3.890332 9.60208,-11.114552 11.69092,-15.7125777 3.11238,-6.850824 1.19034,-6.120477 -4.07828,1.549672 -1.8236,2.6548837 -4.59299,6.4483097 -6.15407,8.4296967 -0.24053,0.305784 -6.08775,9.159875 -5.51835,9.159875 0.18534,0 2.01238,-1.542008 4.06011,-3.426666 z M 70.044446,64.647548 c 0,-0.766613 1.88863,-3.714529 4.19697,-6.551331 5.41687,-6.657108 10.33777,-15.747377 9.16108,-16.923048 -0.88839,-0.887632 -6.76868,2.605526 -15.90254,9.446878 -5.87287,4.398791 -15.00895,9.113445 -15.9119,8.211255 -0.89345,-0.892627 3.76291,-5.052652 7.55354,-6.748324 1.52523,-0.682195 5.01289,-2.682877 7.75038,-4.445651 2.73748,-1.762771 6.02641,-3.84011 7.30875,-4.616199 1.28232,-0.776084 3.86519,-2.34927 5.73971,-3.496 2.9303,-1.792487 3.66524,-1.967778 5.24133,-1.250263 1.60475,0.730432 1.77996,1.161716 1.40644,3.461549 -0.23467,1.444842 -1.26114,3.830122 -2.28102,5.300545 -1.73506,2.501648 -2.36782,4.418346 -1.45858,4.418346 0.42183,0 0.73762,-0.235153 4.71359,-3.515037 3.08454,-2.544285 12.677944,-7.424233 14.595214,-7.424233 0.75706,0 1.52106,0.246351 1.69765,0.546967 0.17655,0.300612 -0.95364,3.141723 -2.5116,6.312992 -2.713294,5.948633 -3.688624,9.15625 -2.744144,11.185015 1.05529,2.26675 15.985974,-7.3524 20.094424,-13.1223 2.9658,-2.560649 10.19552,-12.31891 9.74315,-8.340889 -0.54703,4.810603 -5.5014,6.432801 -7.33116,9.589687 -4.17532,6.610504 -2.59762,6.840056 -0.90237,8.533836 1.60686,1.605574 2.05405,1.538732 5.67899,-0.848438 1.20431,-0.793312 2.7311,-1.691969 3.39285,-1.997495 1.41831,-0.654631 16.67957,-14.211661 16.67957,-14.816764 0,-0.896592 3.03769,-3.606259 4.04291,-3.606259 1.40352,0 1.37988,2.640934 -0.0284,3.180919 -0.60213,0.230846 -1.09483,1.188936 -1.09483,2.128936 0,1.507983 0.33467,1.703855 2.84339,1.663803 1.62833,-0.02583 3.44635,-0.590892 4.2544,-1.321671 1.53065,-1.384465 3.51871,-1.67388 4.17789,-0.608118 0.22724,0.366938 -0.94899,1.832972 -2.61393,3.256889 -3.9535,3.38118 -5.85097,6.551067 -6.57114,10.977943 -0.9896,6.083007 1.05429,6.789237 10.82756,3.741056 3.13195,-0.976781 6.91038,-1.994908 8.39656,-2.262448 2.81829,-0.50734 3.93566,-1.717122 5.69991,-6.171471 1.31812,-3.328208 5.57583,-8.458551 8.55284,-10.305908 2.90545,-1.803003 6.5072,-1.615654 6.17776,0.321286 -0.46163,2.714402 -6.77644,11.879955 -9.61331,13.953252 -1.95953,1.432011 -2.9357,2.705098 -2.9357,3.828742 0,1.579134 0.28302,1.683269 4.57448,1.683269 4.3787,0 4.7351,-0.140401 8.32919,-3.281777 2.06515,-1.804983 3.91071,-3.281784 4.10127,-3.281784 0.19057,0 2.27252,-1.247936 4.62661,-2.773235 7.68295,-4.978055 18.51332,-8.919033 18.51332,-6.736691 0,0.385026 -1.62333,2.217227 -3.6073,4.071475 -7.99771,7.474447 -9.0422,15.98029 -1.33674,10.885431 3.23974,-2.142199 10.9316,-9.584088 13.34815,-12.91445 1.13817,-1.568537 2.39061,-2.163824 5.82907,-2.770564 2.40868,-0.425514 5.33504,-0.965671 6.50311,-1.201512 1.79403,-0.361769 2.04902,-0.234291 1.64238,0.824322 -0.26467,0.68909 -0.48107,1.390669 -0.48107,1.558455 0,0.167966 -0.41035,0.306648 -0.91244,0.309234 -0.50173,0.0025 -1.84987,0.492693 -2.99559,1.09005 -1.14582,0.59692 -2.33974,0.92708 -2.65324,0.733875 -1.34291,-0.829485 -4.90924,1.366637 -6.84021,4.211704 -1.14844,1.691888 -3.89992,4.388975 -6.11461,5.993343 -2.2146,1.604451 -4.72393,3.60169 -5.57608,4.438413 -1.77451,1.742184 -5.88936,3.328469 -7.26544,2.800798 -1.59406,-0.611565 -3.57044,-4.669518 -3.12928,-6.42574 0.22785,-0.907015 1.60441,-3.206499 3.05907,-5.110016 1.45466,-1.903434 2.5017,-3.603932 2.32676,-3.7787 -0.31564,-0.315263 -2.3938,0.567635 -8.44488,3.58808 -1.73,0.863508 -5.0146,3.153521 -7.29909,5.088911 -6.1108,5.17703 -7.61603,5.802206 -13.12496,5.451805 -4.00752,-0.254965 -4.98216,-0.595198 -6.39113,-2.232044 -1.59839,-1.856659 -1.77047,-1.892751 -4.46358,-0.937161 -4.56487,1.619878 -13.81673,4.030994 -17.2958,4.507413 -2.92784,0.400531 -3.35816,0.260129 -4.49508,-1.473786 -1.68708,-2.572625 -1.2063,-9.304494 0.96119,-13.459435 0.88316,-1.692919 1.60576,-3.189787 1.60576,-3.326315 0,-0.136955 -1.63522,-0.465135 -3.63382,-0.729573 l -3.63375,-0.481497 -5.84626,5.674982 c -5.32567,5.169624 -14.32313,10.778798 -15.59808,10.894478 -1.27495,0.115425 -2.04847,-0.222229 -3.22148,-1.200475 -1.85486,-1.547521 -3.07276,-3.528994 -3.25017,-6.060961 -0.4345,0.285111 -1.38318,1.079891 -2.15196,1.820654 -0.44613,0.429821 -2.47201,2.009985 -5.18218,4.069066 -5.04001,3.829348 -9.324934,5.337591 -11.432054,4.023932 -1.43843,-0.896766 -2.10495,-1.724186 -2.09293,-4.257965 6.3e-4,-0.538345 0.30527,-1.636495 0.42794,-2.785206 0.12268,-1.148707 1.20535,-3.82745 2.40583,-5.952771 2.372704,-4.200594 2.04955,-5.234137 -1.12244,-3.589887 -1.12109,0.581418 -2.37753,1.056629 -2.79212,1.056629 -1.23855,0 -7.02637,5.020693 -14.50236,12.580162 -6.9096,6.986746 -9.39381,8.498603 -9.39381,5.717015 z M 179.42931,50.798001 c 2.15917,-1.536146 7.40013,-8.770365 7.40013,-10.214521 0,-1.445445 -5.69695,4.301975 -8.06563,8.137007 -2.35255,3.809022 -2.24413,4.147536 0.66548,2.077514 z m 133.30902,13.138752 c -3.61738,-1.663973 -5.77157,-5.093306 -5.10481,-8.126325 0.65516,-2.981252 -0.99341,-2.871776 -5.21146,0.346269 -6.65466,5.076937 -11.78674,6.678636 -17.0898,5.333706 -4.19541,-1.064035 -6.77255,-3.911691 -6.28071,-6.940058 l 0.39053,-2.404143 -2.21756,1.660185 c -7.65269,5.729162 -19.48315,10.9397 -21.67444,9.546106 -1.33745,-0.85016 -1.58726,-5.570758 -0.49485,-9.344548 0.62933,-2.174243 0.61209,-2.168042 -2.70539,0.98996 -4.51022,4.292762 -10.0078,8.126068 -11.65406,8.126068 -0.8,0 -1.65954,-0.814847 -2.11058,-2.000506 -2.32592,-6.112378 13.66953,-23.658107 20.66398,-22.666595 1.20328,0.170549 1.73006,0.795894 1.89775,2.253575 l 0.23189,2.017476 2.1329,-1.258877 c 1.6872,-0.995901 2.3204,-1.071618 3.03027,-0.362634 0.70947,0.708904 0.28534,1.49007 -2.03167,3.736925 -3.15594,3.06067 -6.55868,9.121625 -7.3406,13.075354 l -0.48538,2.452463 3.20982,-0.530595 c 3.51711,-0.58142 10.71406,-3.890589 14.15845,-6.510161 1.20436,-0.915882 2.96165,-1.909116 3.90505,-2.207146 1.06977,-0.337653 2.24507,-1.73848 3.1229,-3.721159 0.77418,-1.748562 1.70646,-3.363871 2.07189,-3.589546 0.36554,-0.225677 1.65324,-2.126263 2.86171,-4.223591 1.2086,-2.097323 3.14166,-4.836878 4.29569,-6.087832 1.15396,-1.251039 2.80512,-3.471621 3.66912,-4.934817 0.86399,-1.463104 1.91481,-3.064977 2.33514,-3.559741 1.13567,-1.336572 7.16101,-9.69038 9.06314,-11.625083 1.92996,-1.963041 7.59168,-5.8995387 9.91502,-5.1083797 2.93247,0.998316 2.45508,3.8582867 -1.66326,9.9634357 -5.58248,8.275769 -16.88555,20.844131 -23.97128,26.654774 -6.38064,5.232503 -7.913,7.236971 -7.44592,9.740259 0.56208,3.015361 1.09367,3.510728 4.39456,4.098348 3.92078,0.697701 9.49889,-1.398244 19.927,-7.488835 2.80432,-1.637787 8.26956,-7.791856 10.59189,-10.762342 0.73709,-0.942501 3.18688,-2.37279 7.35703,-3.217437 3.01189,-0.609845 4.52701,1.040694 3.34136,3.640535 -0.45171,0.990906 -1.19157,1.80162 -1.64373,1.80162 -0.45259,0 -2.28223,0.984533 -4.06679,2.187852 -1.78441,1.203323 -3.65656,2.187854 -4.16011,2.187854 -0.50347,0 -2.12946,1.110897 -3.61294,2.468573 -2.49858,2.28665 -2.69732,2.771424 -2.69732,6.579148 0,3.630547 0.20434,4.203784 1.75048,4.9076 3.38146,1.539421 8.44049,-0.860498 21.24155,-10.075411 2.40871,-1.734005 5.85751,-3.940809 7.66404,-4.903978 1.80654,-0.963262 3.83048,-2.685723 4.49765,-3.827712 3.191,-5.462227 6.24148,-7.13395 5.45241,-2.987972 -0.55177,2.897272 -2.1001,4.261837 -16.15429,14.233887 -6.02173,4.272688 -11.05809,8.027783 -11.19187,8.344681 -0.13362,0.316977 -0.7216,0.576245 -1.30643,0.576245 -0.58452,0 -2.35075,0.656357 -3.92459,1.458628 -3.44905,1.75812 -3.29762,1.756226 -6.93407,0.08613 z m -67.48877,-6.617481 c 1.38991,-1.187042 2.9163,-2.171575 3.39196,-2.187856 1.57988,-0.05167 10.36474,-9.656187 10.84876,-11.857908 0.2578,-1.17283 0.30607,-2.295178 0.1069,-2.493983 -0.1991,-0.198969 -1.95473,0.454799 -3.90148,1.451653 -5.58148,2.859026 -14.12329,12.569821 -14.12329,16.056088 0,1.698256 0.80264,1.487053 3.67714,-0.967994 z m 47.04808,-17.191707 c 2.58412,-2.620346 5.13418,-5.385824 5.6668,-6.145628 0.53277,-0.759723 3.06249,-3.62064 5.6219,-6.357442 4.78754,-5.119317 11.26866,-13.729557 10.97677,-15.220482 -1.13071,-5.7749007 -14.01935,10.518751 -15.98159,14.1791 -0.56034,1.044915 -1.256,2.063906 -1.54617,2.264515 -0.54745,0.378139 -3.85199,4.96281 -6.92107,9.601662 -0.97274,1.470428 -2.11051,2.884609 -2.52816,3.142501 -0.76815,0.473744 -1.08727,3.30004 -0.37333,3.30004 0.21211,0 2.50064,-2.143836 5.08474,-4.76418 z M 31.436606,60.278818 c -2.64674,-2.470293 -2.73356,-2.98108 -0.89284,-5.252402 1.21273,-1.496352 1.59838,-1.593253 3.28457,-0.826043 1.05078,0.478054 1.91052,1.349753 1.91052,1.936337 0,0.586584 0.34914,1.282046 0.77588,1.545622 1.06585,0.658078 3.60353,-1.76863 3.60353,-3.446124 0,-0.752832 0.53235,-1.572498 1.18299,-1.821951 0.65062,-0.249792 2.53927,-1.91678 4.19696,-3.705139 5.26471,-5.679718 5.32186,-6.804137 0.2582,-5.080209 -3.39218,1.154819 -5.53218,0.702866 -8.92273,-1.88595 -1.33826,-1.021659 -1.79406,-0.939488 -5.4743,0.986858 -5.60021,2.93138 -11.32985,5.117512 -16.13846,6.157603 -3.50854,0.758858 -4.80045,0.702007 -9.0208297,-0.394502 -2.70921,-0.704595 -5.25559001,-1.609968 -5.65863001,-2.012655 -1.59830999,-1.59696 0.30725,-2.147454 6.17700001,-1.784475 4.9232697,0.304059 7.0317997,0.06889 11.5026097,-1.285149 3.01086,-0.911839 6.13121,-1.733402 6.9341,-1.825651 0.80288,-0.09219 3.43057,-1.009086 5.83926,-2.037462 l 4.37944,-1.869755 0.72993,-4.597506 c 0.4089,-2.575468 1.69296,-6.324447 2.91964,-8.524189 1.20434,-2.159776 5.42506,-7.808573 6.12359,-8.519364 5.49182,-5.588156 12.65715,-8.9176577 14.08495,-9.6982217 6.17319,-3.374722 9.35266,-3.570939 9.35266,-0.577112 0,3.793773 -9.55051,17.5762157 -15.15256,21.8668217 -1.10013,0.842412 -2.49293,2.054947 -3.0951,2.694162 -0.60218,0.639131 -3.30915,2.728874 -6.0155,4.643677 -4.2786,3.027162 -4.82286,3.663963 -4.17128,4.880377 1.02932,1.921694 5.86399,1.78801 10.3655,-0.286832 2.0324,-0.936643 7.66329,-5.437849 13.6287,-10.894477 5.59096,-5.114068 10.5195,-9.298378 10.95233,-9.298378 0.43286,0 0.78701,0.745938 0.78701,1.657342 0,1.516249 -0.80839,2.388032 -7.25465,7.823384 -9.81619,8.276719 -18.98373,17.297914 -19.00771,18.704254 -0.0189,1.125371 -5.44665,7.820029 -9.48715,11.702174 -3.84249,3.691964 -5.61607,3.900929 -8.69759,1.02485 z m 10.26315,-26.151832 c 0.13379,-0.304921 2.80316,-2.46745 5.93188,-4.805178 3.12871,-2.337735 6.49953,-5.533895 7.49069,-7.102688 2.40409,-2.325583 4.09012,-4.633855 6.0449,-7.228012 0.69821,0 3.76788,-5.9350287 3.76788,-7.2848647 0,-1.256466 -1.13713,-0.842411 -6.31208,2.2977627 -7.64134,4.637042 -14.30793,11.044007 -16.89279,16.235081 -3.05294,6.130987 -3.51478,8.442702 -1.68668,8.442702 1.13949,0 1.6562,-0.4548 1.6562,-0.554719 z M 405.80134,59.196691 c 0,-0.555577 0.73886,-1.508243 1.64234,-2.117049 3.78199,-2.549282 12.46369,-11.888144 16.55536,-17.808353 3.47098,-5.022247 5.88923,-6.675797 5.88923,-4.02712 0,0.769194 -0.82073,2.352117 -1.82382,3.51754 -1.99395,2.316622 -2.40732,4.671496 -0.81986,4.671496 2.10521,0 6.22234,-2.238073 9.29939,-5.055237 3.06933,-2.810011 5.75277,-3.829779 5.75277,-2.186131 0,0.428961 -1.27609,2.316457 -2.83571,4.193361 -3.26646,3.930901 -6.71139,10.799038 -6.14992,12.260935 0.21038,0.548689 0.85004,0.997026 1.42056,0.997026 1.31964,0 9.50114,-4.104896 10.09497,-5.064967 0.24568,-0.397088 2.65084,-1.760535 5.34506,-3.030093 2.69415,-1.269557 6.45935,-3.413305 8.36714,-4.764008 4.70836,-3.333463 9.03891,-3.356374 10.25942,-0.05168 0.39397,1.065241 0.75867,1.160422 1.96911,0.513369 0.81729,-0.43671 1.80742,-0.596062 2.20053,-0.353158 1.37529,0.849304 0.69398,2.484939 -1.83979,4.415851 -1.40515,1.070752 -2.55477,2.397422 -2.55477,2.948089 0,0.550409 -0.65689,1.411078 -1.4598,1.912043 -0.80258,0.501312 -1.45976,1.652346 -1.45976,2.558671 0,3.182552 4.26588,2.031605 14.26645,-3.849333 3.19329,-1.877762 7.36012,-4.521965 9.25976,-5.87602 1.89955,-1.353971 4.77359,-2.672629 6.38667,-2.930348 2.52682,-0.403977 2.94887,-0.279083 3.04853,0.900809 0.23534,2.78159 -0.11983,3.851484 -1.92152,5.793765 -3.0413,3.278851 -2.35765,4.133319 1.77597,2.219814 1.99078,-0.921574 4.04365,-2.014035 4.56189,-2.427832 2.42749,-1.937802 10.94021,-5.279447 13.50755,-5.302272 1.70159,-0.01722 2.3859,2.528177 1.26234,4.692001 -0.58018,1.116748 -1.05422,2.156931 -1.05422,2.311629 0,0.591757 2.85376,0.248071 3.24902,-0.390195 0.22845,-0.369525 3.37899,-1.730992 7.00109,-3.025527 3.62205,-1.29454 6.75846,-2.633177 6.96969,-2.974621 0.95804,-1.548813 6.13723,-0.187775 6.13723,1.612724 0,0.266162 -1.80418,2.415427 -4.00916,4.776843 -4.41625,4.729294 -5.27445,7.575143 -2.28448,7.575143 0.95452,0 2.09994,-0.438433 2.54533,-0.974976 0.4457,-0.536623 3.18071,-1.90438 6.07831,-3.040254 3.3079,-1.296776 6.25199,-3.067816 7.91141,-4.759357 3.92134,-3.997137 5.98216,-5.122937 8.98459,-4.90803 1.46752,0.105085 2.6689,0.374694 2.66976,0.599508 0.004,1.174206 -5.01754,5.235435 -10.17806,8.231412 -3.2147,1.866307 -6.00768,3.393241 -6.20669,3.393241 -0.43622,0 -7.97384,3.321146 -10.86202,4.786148 -1.13649,0.576248 -2.64576,1.048099 -3.35392,1.048099 -1.44042,0 -3.47544,-1.976217 -3.75466,-3.646392 -0.25431,-1.520732 1.2716,-5.01837 3.41322,-7.823814 l 1.8021,-2.360645 -2.3996,0.43843 c -1.31981,0.241181 -3.22073,0.84241 -4.22439,1.336573 -1.94942,0.959381 -13.60366,7.060912 -17.0158,8.90853 -1.129,0.611565 -2.2517,0.912694 -2.49493,0.669274 -0.61726,-0.616734 1.26524,-3.962772 3.49535,-6.212987 2.37001,-2.391307 4.7661,-6.438752 4.16662,-7.037741 -0.2526,-0.25238 -1.38454,0.04309 -2.51637,0.658077 -1.13175,0.614153 -3.91539,1.926177 -6.18579,2.916309 -2.27036,0.990045 -6.64128,3.455773 -9.71321,5.479369 -4.92586,3.245001 -7.691,4.075432 -7.691,2.309822 0,-1.587919 2.4679,-5.852509 5.07074,-8.762525 1.61445,-1.804984 2.94062,-3.559053 2.94682,-3.898002 0.005,-0.338512 -1.443,0.235151 -3.22064,1.27628 -1.7776,1.040866 -3.60656,1.892493 -4.06415,1.892493 -0.45777,0 -3.79422,1.949773 -7.41461,4.332808 -3.62036,2.383042 -8.72697,5.025001 -11.34811,5.871117 -4.50029,1.452594 -4.84229,1.469046 -6.14118,0.294585 -0.75691,-0.683922 -1.37555,-2.013427 -1.37555,-2.954035 0,-0.940517 -0.25864,-1.71014 -0.57505,-1.71014 -0.31636,0 -2.32436,1.64089 -4.46235,3.646393 -3.7484,3.516156 -5.67551,4.250637 -8.40605,3.203829 -1.26345,-0.484088 -1.6682,-5.717625 -0.49831,-6.440215 0.36125,-0.223094 1.34023,-1.563198 2.17594,-2.978413 l 1.51946,-2.573138 -1.57953,0.844991 c -0.8687,0.464274 -3.07959,1.91868 -4.91304,3.231394 -3.87565,2.774869 -11.02641,6.170523 -12.99458,6.170523 -3.47876,0 -3.95138,-3.391605 -1.32095,-9.480733 0.95296,-2.206109 1.64557,-4.098946 1.53906,-4.206447 -0.1061,-0.107665 -1.1457,0.300617 -2.30944,0.9071 -2.45667,1.280152 -4.23201,1.397296 -6.09317,0.402256 -1.56567,-0.837247 -3.05537,0.431536 -8.04644,6.853235 -1.79564,2.310337 -4.35264,5.15498 -5.68214,6.32126 -2.54941,2.236521 -5.28614,2.811476 -5.28614,1.110548 z m 49.86864,-5.205198 c 8.22557,-4.961864 13.50642,-12.028973 9.42547,-12.613577 -1.16694,-0.167104 -3.04548,0.984445 -6.38673,3.915395 -2.60344,2.283811 -4.73352,4.553665 -4.73352,5.044122 0,0.490977 -0.65693,1.485847 -1.45978,2.211799 -1.56972,1.41935 -1.95411,3.281783 -0.6776,3.281783 0.43016,0 2.15468,-0.827769 3.832,-1.839522 z M 129.16683,27.431982 c 0,-0.377274 0.33469,-0.892884 0.74388,-1.145522 0.40904,-0.25238 1.55186,-2.052706 2.5396,-4.000239 1.70966,-3.37102 3.89521,-4.98917 5.44555,-4.031767 1.3636,0.84241 -2.2407,6.723516 -5.10658,8.332796 -3.04126,1.707904 -3.62241,1.843394 -3.62241,0.844989 z"/>
</svg>
