<?xml version="1.0" encoding="utf-8"?>
<svg xmlns="http://www.w3.org/2000/svg" viewBox="0 0 75 40">
	<title>A floorplan, showing a library with a table and chair, and two doors: one to the bottom into a hallway, and one to the right through a small passageway into a bedroom containing a bed and sidetable. The bedroom has another door in the same wall into the hall also opening into the library.</title>
	<path d="m 65.655,37.099 v -4.367 h -3.854 v 4.367 m -4.845,0.011 0.039,-8.646 h -7.32 l 0.003,8.686 M 31.578,24.707 V 15.816 L 37.77,15.813 37.746,28.717 M 31.578,4.277 v 6.968 H 37.77 V 4.277 m -0.024,27.92 v 4.951 M 19.704,24.788 h 18.093 m -33.716,0 h 6.563 M 4.081,37.171 h 66.21 v -3.27 M 4.081,4.18 h 66.21 V 22.42 M 10.44,10.776 h 13.775 v 4.707 H 10.44 Z" fill="none" stroke="#000" stroke-width="0.794"/>
	<path d="m 14.192,3.136 c -0.035,0 -0.071,-0.035 -0.11,-0.109 C 13.946,2.775 13.576,2.803 12.863,2.747 12.452,2.715 7.623,2.713 7.191,2.745 6.465,2.799 6.077,2.78 5.949,3.04 5.9,3.14 5.805,3.174 5.805,3.092 5.805,3.01 5.942,2.803 6.063,2.703 6.282,2.522 6.648,2.415 7.212,2.368 7.61,2.335 12.413,2.335 12.824,2.369 c 0.552,0.045 0.915,0.147 1.14,0.32 0.109,0.084 0.232,0.262 0.263,0.382 0.014,0.055 0.008,0.066 -0.034,0.066 z m 14.849,0 C 29.006,3.136 28.97,3.101 28.931,3.027 28.795,2.775 28.425,2.803 27.712,2.747 27.301,2.715 22.472,2.713 22.04,2.745 21.314,2.799 20.926,2.78 20.798,3.04 c -0.049,0.1 -0.144,0.134 -0.144,0.052 0,-0.082 0.137,-0.289 0.258,-0.389 0.219,-0.181 0.585,-0.288 1.149,-0.335 0.398,-0.033 5.201,-0.033 5.612,0.001 0.552,0.045 0.915,0.147 1.14,0.32 0.109,0.084 0.232,0.262 0.263,0.382 0.014,0.055 0.008,0.066 -0.034,0.066 z m 21.167,0 c -0.035,0 -0.071,-0.035 -0.11,-0.109 C 49.962,2.775 49.592,2.803 48.879,2.747 48.468,2.715 43.639,2.713 43.207,2.745 42.481,2.799 42.093,2.78 41.965,3.04 c -0.049,0.1 -0.144,0.134 -0.144,0.052 0,-0.082 0.137,-0.289 0.258,-0.389 0.219,-0.181 0.585,-0.288 1.149,-0.335 0.398,-0.033 5.201,-0.033 5.612,0.001 0.552,0.045 0.915,0.147 1.14,0.32 0.109,0.084 0.232,0.262 0.263,0.382 0.014,0.055 0.008,0.066 -0.034,0.066 z m 15.013,0 C 65.186,3.136 65.15,3.101 65.111,3.027 64.975,2.775 64.605,2.803 63.892,2.747 63.481,2.715 58.652,2.713 58.22,2.745 57.494,2.799 57.106,2.78 56.978,3.04 c -0.049,0.1 -0.144,0.134 -0.144,0.052 0,-0.082 0.137,-0.289 0.258,-0.389 0.219,-0.181 0.585,-0.288 1.149,-0.335 0.398,-0.033 5.201,-0.033 5.612,0.001 0.552,0.045 0.915,0.147 1.14,0.32 0.109,0.084 0.232,0.262 0.263,0.382 0.014,0.055 0.008,0.066 -0.034,0.066 z m 5.895,10.221 c 0,-0.027 0.036,-0.054 0.109,-0.085 0.252,-0.105 0.224,-0.389 0.28,-0.937 0.032,-0.316 0.034,-4.028 0.002,-4.36 C 71.453,7.417 71.473,7.119 71.212,7.02 71.112,6.982 71.078,6.909 71.16,6.909 c 0.083,0 0.289,0.105 0.389,0.198 0.181,0.168 0.288,0.45 0.335,0.883 0.034,0.306 0.033,3.998 -0.001,4.314 -0.045,0.425 -0.147,0.704 -0.32,0.877 -0.083,0.084 -0.262,0.178 -0.382,0.202 -0.055,0.011 -0.066,0.006 -0.066,-0.026 z m 0.143,5.937 c -0.082,0 -0.048,0.073 0.052,0.111 0.26,0.098 0.241,0.396 0.295,0.954 0.023,0.241 0.029,1.663 0.018,2.875 h 0.38 c 0.011,-1.202 0.005,-2.636 -0.02,-2.859 -0.047,-0.433 -0.154,-0.715 -0.335,-0.883 -0.1,-0.093 -0.307,-0.198 -0.389,-0.198 z m 0,15.653 c -0.082,0 -0.048,-0.073 0.052,-0.111 0.26,-0.098 0.241,-0.396 0.295,-0.954 0.023,-0.241 0.029,-1.962 0.018,-3.175 h 0.38 c 0.011,1.202 0.005,2.936 -0.02,3.159 -0.047,0.433 -0.154,0.715 -0.335,0.883 -0.1,0.093 -0.307,0.198 -0.389,0.198 z"/>
	<path aria-label="⨀" d="m 26.60068,13.86451 q 0.130914,0 0.211874,0.0861 0.08096,0.0861 0.08096,0.22049 0,0.13952 -0.08096,0.22565 -0.08096,0.0844 -0.211874,0.0844 -0.127468,0 -0.208428,-0.0844 -0.07924,-0.0861 -0.07924,-0.22565 0,-0.13608 0.07924,-0.22049 0.08096,-0.0861 0.208428,-0.0861 z m -0.0017,-1.04386 q 0.370348,0 0.682129,0.17053 0.311781,0.16881 0.487481,0.48059 0.177423,0.31006 0.177423,0.69936 0,0.37896 -0.172255,0.68902 -0.172255,0.31006 -0.485759,0.48575 -0.311781,0.1757 -0.689019,0.1757 -0.375516,0 -0.68902,-0.17397 -0.311781,-0.17398 -0.484036,-0.48404 -0.172255,-0.31006 -0.172255,-0.69246 0,-0.38758 0.1757,-0.69764 0.1757,-0.31178 0.485759,-0.48231 0.310059,-0.17053 0.683852,-0.17053 z m -0.0017,0.23943 q -0.294556,0 -0.539158,0.14125 -0.242879,0.13953 -0.380683,0.39619 -0.137804,0.25494 -0.137804,0.57361 0,0.31695 0.134359,0.57188 0.136081,0.25322 0.382406,0.39619 0.246324,0.14297 0.54088,0.14297 0.304891,0 0.549493,-0.14297 0.246325,-0.14297 0.378961,-0.39791 0.134359,-0.25494 0.134359,-0.57016 0,-0.3204 -0.137804,-0.57533 -0.136082,-0.25666 -0.380683,-0.39619 -0.24288,-0.13953 -0.544326,-0.13953 z"/>
	<path aria-label="Bedroom" d="m 50.4018,7.8086 q 0,0.17088 -0.0689,0.28112 Q 50.264,8.19858 50.15376,8.2606 50.04489,8.3212 49.92087,8.3447 49.79685,8.3681 49.68523,8.3681 H 48.89561 V 8.24684 l 0.14883,-0.011 q 0.0303,-0.003 0.0441,-0.0221 0.0152,-0.0193 0.0152,-0.04 V 6.66892 q 0,-0.0207 -0.0152,-0.04 -0.0138,-0.0207 -0.0441,-0.022 l -0.14883,-0.011 V 6.47465 h 0.75517 q 0.33761,0 0.48644,0.12127 0.14883,0.12126 0.14883,0.33348 0,0.14056 -0.0675,0.22876 -0.0661,0.0882 -0.16123,0.13642 -0.0937,0.0469 -0.17777,0.0689 0.12678,0 0.24667,0.0427 0.11989,0.0413 0.19706,0.13918 0.0785,0.0965 0.0785,0.26321 z M 49.98149,6.9487 q 0,-0.16536 -0.10886,-0.25493 -0.10749,-0.0896 -0.32522,-0.0896 -0.0441,0 -0.0951,0.004 -0.051,0.004 -0.0662,0.004 V 7.326 q 0,0 0.0386,0.001 0.04,0.001 0.0634,0.001 0.2756,0 0.38447,-0.0992 0.10886,-0.0992 0.10886,-0.28112 z m 0.113,0.88333 q 0,-0.19293 -0.11575,-0.2825 -0.11438,-0.0896 -0.339,-0.0896 -0.0455,0 -0.10197,0.004 -0.0565,0.004 -0.1006,0.008 -0.0427,0.004 -0.051,0.004 v 0.74552 q 0,0 0.0317,0.003 0.0331,0.001 0.0744,0.004 0.0427,10e-4 0.0689,10e-4 0.29628,0 0.41479,-0.0992 0.11851,-0.0992 0.11851,-0.29903 z m 1.70464,0.39549 q -0.11852,0.073 -0.25632,0.12403 -0.13643,0.051 -0.27974,0.051 -0.17088,0 -0.32108,-0.0758 -0.14883,-0.0772 -0.24116,-0.23289 -0.0923,-0.15572 -0.0923,-0.39136 0,-0.22049 0.0854,-0.38447 0.0854,-0.16399 0.23564,-0.25356 0.15021,-0.0909 0.34176,-0.0909 0.2632,0 0.39549,0.16399 0.1323,0.1626 0.1323,0.41478 0,0.0138 0,0.0372 0,0.022 -0.003,0.0413 H 50.8811 q 0,0.10749 0.0221,0.21498 0.0234,0.10611 0.0772,0.19292 0.0537,0.0868 0.1447,0.13918 0.0909,0.0524 0.22737,0.0524 0.12127,0 0.23565,-0.0551 0.11575,-0.0565 0.21084,-0.11989 z m -0.2825,-0.72347 v -0.062 q 0,-0.13918 -0.0675,-0.23426 -0.0661,-0.0951 -0.2067,-0.0951 -0.13918,0 -0.23702,0.10473 -0.0978,0.10473 -0.10887,0.28663 z m 1.89756,0.86403 h -0.44373 v -0.1502 q -0.0965,0.0744 -0.20533,0.12953 -0.10887,0.0551 -0.23151,0.0551 -0.14194,0 -0.24529,-0.0593 -0.10198,-0.0606 -0.16812,-0.15985 -0.0648,-0.0992 -0.0965,-0.21911 -0.0317,-0.11989 -0.0317,-0.23978 0,-0.19155 0.0786,-0.36242 0.0785,-0.17226 0.2384,-0.27975 0.15985,-0.10886 0.40239,-0.10886 0.0675,0 0.14607,0.0138 0.0799,0.0124 0.113,0.0207 V 6.49118 h -0.2136 v -0.0937 l 0.3638,-0.10887 h 0.113 v 1.89894 q 0,0.0579 0.0593,0.062 l 0.12127,0.008 z M 52.97046,8.11177 V 7.15128 q -0.0358,-0.0124 -0.10749,-0.0262 -0.0703,-0.0152 -0.13229,-0.0152 -0.20946,0 -0.33486,0.15572 -0.12541,0.15434 -0.12541,0.41066 0,0.23013 0.10749,0.38171 0.10749,0.15159 0.30179,0.15159 0.0854,0 0.15985,-0.0317 0.0758,-0.0331 0.13092,-0.0661 z m 1.59163,-0.8158 h -0.11024 q -0.0262,-0.0317 -0.0634,-0.0537 -0.0358,-0.0234 -0.0882,-0.0234 -0.0675,0 -0.13918,0.0469 -0.0703,0.0469 -0.14331,0.12816 v 0.79375 q 0,0.0593 0.0593,0.062 l 0.18604,0.008 V 8.36792 H 53.55754 V 8.26044 l 0.13918,-0.011 q 0.0248,-0.003 0.0413,-0.0193 0.0179,-0.0165 0.0179,-0.0427 V 7.20766 h -0.20395 v -0.0923 l 0.35002,-0.10749 h 0.11576 v 0.2508 q 0.11988,-0.13918 0.20808,-0.21222 0.0896,-0.073 0.16399,-0.073 0.0441,0 0.0951,0.0138 0.051,0.0138 0.0772,0.0289 z m 1.46761,0.39412 q 0,0.19981 -0.0827,0.36242 -0.0827,0.16123 -0.23427,0.25632 -0.15021,0.0937 -0.35691,0.0937 -0.20533,0 -0.35553,-0.0937 -0.15021,-0.0937 -0.23151,-0.25494 -0.0813,-0.16123 -0.0813,-0.3638 0,-0.2012 0.0813,-0.3638 0.0827,-0.16261 0.23426,-0.2577 0.15296,-0.0951 0.36105,-0.0951 0.21084,0 0.35967,0.0965 0.14882,0.0965 0.22737,0.25907 0.0786,0.16261 0.0786,0.36105 z m -0.29352,-0.003 q 0,-0.15434 -0.0413,-0.28801 -0.04,-0.13367 -0.12403,-0.21635 -0.0827,-0.0827 -0.20946,-0.0827 -0.13091,0 -0.21497,0.0827 -0.0827,0.0827 -0.12265,0.21635 -0.04,0.13367 -0.04,0.28801 0,0.15296 0.04,0.28801 0.0413,0.13367 0.12403,0.21635 0.0841,0.0827 0.21084,0.0827 0.12953,0 0.21221,-0.0827 0.0841,-0.0827 0.12403,-0.21635 0.0413,-0.13367 0.0413,-0.28801 z m 1.82865,0.003 q 0,0.19981 -0.0827,0.36242 -0.0827,0.16123 -0.23427,0.25632 -0.1502,0.0937 -0.35691,0.0937 -0.20532,0 -0.35553,-0.0937 -0.15021,-0.0937 -0.23151,-0.25494 -0.0813,-0.16123 -0.0813,-0.3638 0,-0.2012 0.0813,-0.3638 0.0827,-0.16261 0.23427,-0.2577 0.15296,-0.0951 0.36104,-0.0951 0.21084,0 0.35967,0.0965 0.14883,0.0965 0.22737,0.25907 0.0786,0.16261 0.0786,0.36105 z m -0.29352,-0.003 q 0,-0.15434 -0.0413,-0.28801 -0.04,-0.13367 -0.12402,-0.21635 -0.0827,-0.0827 -0.20947,-0.0827 -0.13091,0 -0.21497,0.0827 -0.0827,0.0827 -0.12264,0.21635 -0.04,0.13367 -0.04,0.28801 0,0.15296 0.04,0.28801 0.0413,0.13367 0.12402,0.21635 0.0841,0.0827 0.21084,0.0827 0.12953,0 0.21222,-0.0827 0.0841,-0.0827 0.12402,-0.21635 0.0413,-0.13367 0.0413,-0.28801 z m 2.72714,0.68075 H 59.36593 V 8.2576 l 0.11851,-0.008 q 0.0593,-0.004 0.0593,-0.062 V 7.46826 q 0,-0.13091 -0.0551,-0.20946 -0.0537,-0.0786 -0.19568,-0.0786 -0.0703,0 -0.15434,0.0221 -0.0827,0.0221 -0.14745,0.0565 v 0.9288 q 0,0.0579 0.0593,0.062 l 0.11851,0.008 V 8.36784 H 58.55024 V 8.2576 l 0.11851,-0.008 q 0.0593,-0.004 0.0593,-0.062 V 7.45035 q 0,-0.11989 -0.0565,-0.1943 -0.0565,-0.0758 -0.19155,-0.0758 -0.0799,0 -0.16674,0.0276 -0.0868,0.0262 -0.13505,0.0537 v 0.92604 q 0,0.0579 0.0592,0.062 l 0.11852,0.008 V 8.36783 H 57.71789 V 8.25759 l 0.13781,-0.008 q 0.0593,-0.004 0.0593,-0.062 V 7.20781 h -0.1943 v -0.0923 l 0.34175,-0.10749 h 0.11576 v 0.14056 q 0.0634,-0.0386 0.14194,-0.0785 0.0799,-0.04 0.16261,-0.0675 0.0827,-0.0289 0.15571,-0.0289 0.12265,0 0.19844,0.0634 0.0758,0.062 0.11162,0.13229 0.0565,-0.0358 0.14332,-0.0813 0.0868,-0.0469 0.17914,-0.0799 0.0937,-0.0344 0.16812,-0.0344 0.14883,0 0.22738,0.0689 0.0786,0.0675 0.10749,0.16812 0.0289,0.0992 0.0289,0.19568 v 0.78135 q 0,0.0262 0.0165,0.0441 0.0179,0.0165 0.0427,0.0179 l 0.13643,0.008 z"/>
	<path aria-label="Door" d="m 40.496813,30.519587 q 0,0.184657 -0.05374,0.355533 -0.05374,0.170877 -0.170877,0.305924 -0.115755,0.13367 -0.303168,0.212218 -0.186035,0.07717 -0.451996,0.07717 h -0.784103 v -0.121267 l 0.148828,-0.01102 q 0.03032,-0.0028 0.04547,-0.02205 0.01654,-0.01929 0.01654,-0.03996 v -1.504817 q 0,-0.02067 -0.01654,-0.03996 -0.01516,-0.02067 -0.04547,-0.02205 l -0.148828,-0.01102 V 29.57702 h 0.727603 q 0.296278,0 0.530545,0.100597 0.234266,0.09922 0.369314,0.307302 0.136425,0.208084 0.136425,0.534679 z m -0.319704,0.0055 q 0,-0.296278 -0.09095,-0.474045 -0.08957,-0.179145 -0.254937,-0.259071 -0.163986,-0.07993 -0.387228,-0.07993 H 39.22902 v 1.623328 l 0.228754,-0.0028 q 0.21773,-0.0028 0.378961,-0.08268 0.16123,-0.0813 0.250802,-0.257693 0.08957,-0.176388 0.08957,-0.467154 z m 1.86724,0.267339 q 0,0.199815 -0.08268,0.362424 -0.08268,0.16123 -0.234266,0.256315 -0.150206,0.09371 -0.356912,0.09371 -0.205328,0 -0.355534,-0.09371 -0.150206,-0.09371 -0.23151,-0.254937 -0.0813,-0.161231 -0.0813,-0.363802 0,-0.201193 0.0813,-0.363802 0.08268,-0.162608 0.234266,-0.257693 0.152963,-0.09508 0.361046,-0.09508 0.21084,0 0.359668,0.09646 0.148828,0.09646 0.227376,0.259071 0.07855,0.162609 0.07855,0.361046 z m -0.293522,-0.0028 q 0,-0.15434 -0.04134,-0.28801 -0.03996,-0.133669 -0.124023,-0.216352 -0.08268,-0.08268 -0.209462,-0.08268 -0.130913,0 -0.214974,0.08268 -0.08268,0.08268 -0.122645,0.216352 -0.03996,0.13367 -0.03996,0.28801 0,0.152962 0.03996,0.28801 0.04134,0.133669 0.124023,0.216352 0.08406,0.08268 0.21084,0.08268 0.129536,0 0.212218,-0.08268 0.08406,-0.08268 0.124023,-0.216352 0.04134,-0.13367 0.04134,-0.28801 z m 1.828655,0.0028 q 0,0.199815 -0.08268,0.362424 -0.08268,0.16123 -0.234266,0.256315 -0.150206,0.09371 -0.356912,0.09371 -0.205327,0 -0.355533,-0.09371 -0.150206,-0.09371 -0.231511,-0.254937 -0.0813,-0.161231 -0.0813,-0.363802 0,-0.201193 0.0813,-0.363802 0.08268,-0.162608 0.234267,-0.257693 0.152962,-0.09508 0.361046,-0.09508 0.210839,0 0.359667,0.09646 0.148828,0.09646 0.227376,0.259071 0.07855,0.162609 0.07855,0.361046 z m -0.293521,-0.0028 q 0,-0.15434 -0.04134,-0.28801 -0.03996,-0.133669 -0.124023,-0.216352 -0.08268,-0.08268 -0.209462,-0.08268 -0.130913,0 -0.214973,0.08268 -0.08268,0.08268 -0.122646,0.216352 -0.03996,0.13367 -0.03996,0.28801 0,0.152962 0.03996,0.28801 0.04134,0.133669 0.124024,0.216352 0.08406,0.08268 0.210839,0.08268 0.129536,0 0.212218,-0.08268 0.08406,-0.08268 0.124023,-0.216352 0.04134,-0.13367 0.04134,-0.28801 z m 1.464853,-0.391363 h -0.110243 q -0.02618,-0.03169 -0.06339,-0.05374 -0.03583,-0.02343 -0.08819,-0.02343 -0.06752,0 -0.139182,0.04685 -0.07028,0.04685 -0.143315,0.128157 v 0.793749 q 0,0.05926 0.05926,0.06201 l 0.186035,0.0083 v 0.110243 h -0.705555 v -0.107487 l 0.139182,-0.01102 q 0.02481,-0.0028 0.04134,-0.01929 0.01791,-0.01654 0.01791,-0.04272 v -0.979784 h -0.20395 v -0.09233 l 0.350021,-0.107487 h 0.115756 v 0.250802 q 0.119889,-0.139181 0.208083,-0.212217 0.08957,-0.07304 0.163987,-0.07304 0.0441,0 0.09508,0.01378 0.05099,0.01378 0.07717,0.02894 z"/>
	<path aria-label="Door" d="m 13.814984,23.09154 q 0,0.18465 -0.05374,0.35553 -0.05374,0.17088 -0.170877,0.30593 -0.115755,0.13367 -0.303168,0.21221 -0.186035,0.0772 -0.451996,0.0772 H 12.0511 v -0.12126 l 0.148828,-0.011 q 0.03032,-0.003 0.04547,-0.0221 0.01654,-0.0193 0.01654,-0.04 v -1.50482 q 0,-0.0207 -0.01654,-0.04 -0.01516,-0.0207 -0.04547,-0.0221 l -0.148828,-0.011 v -0.12127 h 0.7276 q 0.296278,0 0.530544,0.1006 0.234266,0.0992 0.369314,0.3073 0.136426,0.20808 0.136426,0.53468 z m -0.319705,0.006 q 0,-0.29628 -0.09095,-0.47404 -0.08957,-0.17915 -0.254936,-0.25908 -0.163987,-0.0799 -0.387229,-0.0799 H 12.54719 v 1.62333 l 0.228755,-0.003 q 0.217729,-0.003 0.37896,-0.0827 0.16123,-0.0813 0.250802,-0.2577 0.08957,-0.17638 0.08957,-0.46715 z m 1.86724,0.26734 q 0,0.19981 -0.08268,0.36242 -0.08268,0.16123 -0.234266,0.25632 -0.150206,0.0937 -0.356912,0.0937 -0.205327,0 -0.355534,-0.0937 -0.150206,-0.0937 -0.23151,-0.25494 -0.0813,-0.16123 -0.0813,-0.3638 0,-0.20119 0.0813,-0.3638 0.08268,-0.16261 0.234267,-0.2577 0.152962,-0.0951 0.361045,-0.0951 0.21084,0 0.359668,0.0965 0.148828,0.0965 0.227376,0.25907 0.07855,0.16261 0.07855,0.36105 z m -0.293522,-0.003 q 0,-0.15434 -0.04134,-0.28801 -0.03996,-0.13367 -0.124023,-0.21635 -0.08268,-0.0827 -0.209462,-0.0827 -0.130913,0 -0.214974,0.0827 -0.08268,0.0827 -0.122645,0.21635 -0.03996,0.13367 -0.03996,0.28801 0,0.15297 0.03996,0.28801 0.04134,0.13367 0.124023,0.21635 0.08406,0.0827 0.21084,0.0827 0.129536,0 0.212218,-0.0827 0.08406,-0.0827 0.124023,-0.21635 0.04134,-0.13367 0.04134,-0.28801 z m 1.828656,0.003 q 0,0.19981 -0.08268,0.36242 -0.08268,0.16123 -0.234266,0.25632 -0.150206,0.0937 -0.356912,0.0937 -0.205327,0 -0.355533,-0.0937 -0.150206,-0.0937 -0.23151,-0.25494 -0.08131,-0.16123 -0.08131,-0.3638 0,-0.20119 0.08131,-0.3638 0.08268,-0.16261 0.234266,-0.2577 0.152962,-0.0951 0.361046,-0.0951 0.210839,0 0.359667,0.0965 0.148828,0.0965 0.227376,0.25907 0.07855,0.16261 0.07855,0.36105 z m -0.293522,-0.003 q 0,-0.15434 -0.04134,-0.28801 -0.03996,-0.13367 -0.124024,-0.21635 -0.08268,-0.0827 -0.209461,-0.0827 -0.130914,0 -0.214974,0.0827 -0.08268,0.0827 -0.122646,0.21635 -0.03996,0.13367 -0.03996,0.28801 0,0.15297 0.03996,0.28801 0.04134,0.13367 0.124024,0.21635 0.08406,0.0827 0.210839,0.0827 0.129536,0 0.212218,-0.0827 0.08406,-0.0827 0.124024,-0.21635 0.04134,-0.13367 0.04134,-0.28801 z m 1.464853,-0.39136 h -0.110243 q -0.02618,-0.0317 -0.06339,-0.0537 -0.03583,-0.0234 -0.08819,-0.0234 -0.06752,0 -0.139181,0.0469 -0.07028,0.0469 -0.143316,0.12816 v 0.79375 q 0,0.0593 0.05926,0.062 l 0.186035,0.008 v 0.11024 h -0.705555 v -0.10748 l 0.139182,-0.011 q 0.02481,-0.003 0.04134,-0.0193 0.01792,-0.0165 0.01792,-0.0427 v -0.97978 h -0.20395 v -0.0923 l 0.350022,-0.10749 h 0.115755 v 0.2508 q 0.119889,-0.13918 0.208083,-0.21221 0.08957,-0.073 0.163987,-0.073 0.0441,0 0.09508,0.0138 0.05099,0.0138 0.07717,0.0289 z"/>
	<path aria-label="Hall" d="m 16.280418,31.1844 h -0.713823 v -0.12127 l 0.16123,-0.011 q 0.02894,-0.003 0.0441,-0.0221 0.01516,-0.0193 0.01516,-0.04 v -0.72898 h -0.928797 v 0.72898 q 0,0.0207 0.01378,0.04 0.01516,0.0193 0.04548,0.0221 l 0.161231,0.011 v 0.12127 h -0.713824 v -0.12127 l 0.146072,-0.011 q 0.03032,-0.003 0.04548,-0.0221 0.01654,-0.0193 0.01654,-0.04 v -1.50481 q 0,-0.0207 -0.01654,-0.0386 -0.01516,-0.0193 -0.04548,-0.0207 l -0.146072,-0.011 v -0.12403 h 0.713824 v 0.12403 l -0.161231,0.011 q -0.03032,10e-4 -0.04548,0.0207 -0.01378,0.0179 -0.01378,0.0386 v 0.63527 h 0.928797 v -0.63527 q 0,-0.0207 -0.01516,-0.0386 -0.01516,-0.0193 -0.0441,-0.0207 l -0.16123,-0.011 v -0.12403 h 0.713823 v 0.12403 l -0.146072,0.011 q -0.03032,10e-4 -0.04685,0.0207 -0.01516,0.0179 -0.01516,0.0386 v 1.50481 q 0,0.0207 0.01516,0.04 0.01654,0.0193 0.04685,0.0221 l 0.146072,0.011 z m 1.480012,0 h -0.417545 l -0.03721,-0.16675 q -0.05374,0.0427 -0.13367,0.0896 -0.07993,0.0469 -0.168121,0.0786 -0.08819,0.0331 -0.169498,0.0331 -0.152962,0 -0.260449,-0.10198 -0.106109,-0.10197 -0.106109,-0.27974 0,-0.0786 0.02756,-0.14607 0.02894,-0.0675 0.112999,-0.12816 0.08544,-0.062 0.252181,-0.11989 0.16812,-0.0592 0.445106,-0.11989 0,-0.004 0,-0.0441 0,-0.0413 0,-0.0772 0,-0.27837 -0.263205,-0.27837 -0.07304,0 -0.12678,0.0138 -0.05237,0.0138 -0.07304,0.022 v 0.24529 H 16.63733 q -0.03858,0 -0.07166,-0.0138 -0.03307,-0.0152 -0.03307,-0.0675 0,-0.11576 0.08819,-0.18879 0.0882,-0.0744 0.223242,-0.10887 0.136426,-0.0358 0.275608,-0.0358 0.17501,0 0.271473,0.0551 0.09646,0.0537 0.135048,0.15021 0.03858,0.0951 0.03858,0.21773 v 0.79099 q 0,0.0262 0.01654,0.0441 0.01792,0.0165 0.04272,0.0179 l 0.136426,0.008 z m -0.454752,-0.26596 v -0.48783 q -0.190169,0.0469 -0.303169,0.0951 -0.111621,0.0469 -0.166742,0.0951 -0.05512,0.0469 -0.07304,0.0965 -0.01654,0.0482 -0.01654,0.1006 0,0.0868 0.05512,0.16123 0.0565,0.073 0.157096,0.073 0.08268,0 0.183279,-0.0455 0.100597,-0.0455 0.163987,-0.0882 z m 1.26366,0.26596 h -0.686263 v -0.11025 l 0.150206,-0.008 q 0.01929,-0.001 0.03996,-0.0207 0.02205,-0.0207 0.02205,-0.0386 v -1.69912 h -0.214974 v -0.0937 l 0.361046,-0.10886 h 0.115755 v 1.90169 q 0,0.0179 0.02067,0.0386 0.02067,0.0193 0.03858,0.0207 l 0.152962,0.008 z m 0.837846,0 h -0.686262 v -0.11025 l 0.150206,-0.008 q 0.01929,-0.001 0.03996,-0.0207 0.02205,-0.0207 0.02205,-0.0386 v -1.69912 h -0.214973 v -0.0937 l 0.361045,-0.10886 h 0.115756 v 1.90169 q 0,0.0179 0.02067,0.0386 0.02067,0.0193 0.03858,0.0207 l 0.152962,0.008 z"/>
	<path aria-label="Library" d="M 13.076477,8.36808 H 11.703952 V 8.24682 l 0.163986,-0.011 q 0.03032,-0.003 0.0441,-0.0221 0.01516,-0.0193 0.01516,-0.04 V 6.6689 q 0,-0.0207 -0.01516,-0.04 -0.01378,-0.0207 -0.0441,-0.022 L 11.703952,6.5959 V 6.47463 h 0.720714 V 6.5959 l -0.150207,0.011 q -0.03032,10e-4 -0.04685,0.022 -0.01516,0.0193 -0.01516,0.04 v 1.56132 h 0.592556 q 0.01929,0 0.03996,-0.0152 0.02067,-0.0152 0.02205,-0.0331 l 0.04548,-0.339 h 0.163986 z m 0.664214,-1.8259 q 0,0.0717 -0.04961,0.12403 -0.04961,0.051 -0.121268,0.051 -0.07166,0 -0.124023,-0.051 -0.05099,-0.0524 -0.05099,-0.12403 0,-0.073 0.05099,-0.12264 0.05236,-0.0496 0.124023,-0.0496 0.07166,0 0.121268,0.0496 0.04961,0.0496 0.04961,0.12264 z m 0.144694,1.8259 H 13.222549 V 8.25784 l 0.137804,-0.008 q 0.05925,-0.004 0.05925,-0.062 V 7.18049 H 13.2253 V 7.08129 L 13.569809,6.9738 h 0.111621 v 1.21405 q 0,0.0262 0.01654,0.0441 0.01791,0.0165 0.04272,0.0179 l 0.144694,0.008 z m 1.566828,-0.74552 q 0,0.21222 -0.08406,0.38172 -0.08406,0.16812 -0.263205,0.26596 -0.179145,0.0978 -0.463021,0.0978 H 14.235406 V 6.4912 H 14.02181 V 6.3975 l 0.363802,-0.10887 h 0.112999 v 0.78962 q 0.04823,-0.0234 0.155718,-0.0634 0.108865,-0.0413 0.232889,-0.0413 0.186035,0 0.311436,0.0896 0.125402,0.0896 0.188791,0.2384 0.06477,0.14745 0.06477,0.32108 z m -0.28801,0.0565 q 0,-0.26734 -0.112999,-0.40238 -0.112999,-0.13643 -0.318326,-0.13643 -0.04685,0 -0.11989,0.0152 -0.07166,0.0152 -0.114377,0.0303 v 1.0473 q 0.03445,10e-4 0.0689,0.003 0.03445,0 0.0689,0 0.250803,0 0.388606,-0.12402 0.139182,-0.12403 0.139182,-0.43271 z m 1.459342,-0.38309 h -0.110243 q -0.02618,-0.0317 -0.06339,-0.0537 -0.03583,-0.0234 -0.08819,-0.0234 -0.06752,0 -0.139181,0.0469 -0.07028,0.0469 -0.143316,0.12816 v 0.79375 q 0,0.0593 0.05926,0.062 l 0.186035,0.008 V 8.36792 H 15.618965 V 8.26044 l 0.139182,-0.011 q 0.02481,-0.003 0.04134,-0.0193 0.01792,-0.0165 0.01792,-0.0427 V 7.20766 h -0.20395 v -0.0923 l 0.350022,-0.10749 h 0.115755 v 0.2508 q 0.119889,-0.13918 0.208083,-0.21222 0.08957,-0.073 0.163987,-0.073 0.0441,0 0.09508,0.0138 0.05099,0.0138 0.07717,0.0289 z m 1.418,1.07211 H 17.624 L 17.58679,8.20134 q -0.05374,0.0427 -0.13367,0.0896 -0.07993,0.0469 -0.16812,0.0786 -0.08819,0.0331 -0.169499,0.0331 -0.152962,0 -0.260449,-0.10197 -0.106109,-0.10198 -0.106109,-0.27974 0,-0.0786 0.02756,-0.14607 0.02894,-0.0675 0.112999,-0.12816 0.08544,-0.062 0.252181,-0.11989 0.16812,-0.0593 0.445106,-0.11989 0,-0.004 0,-0.0441 0,-0.0413 0,-0.0772 0,-0.27836 -0.263205,-0.27836 -0.07304,0 -0.12678,0.0138 -0.05237,0.0138 -0.07304,0.0221 v 0.24529 h -0.205327 q -0.03859,0 -0.07166,-0.0138 -0.03307,-0.0152 -0.03307,-0.0675 0,-0.11575 0.08819,-0.18879 0.0882,-0.0744 0.223242,-0.10886 0.136426,-0.0358 0.275608,-0.0358 0.17501,0 0.271473,0.0551 0.09646,0.0537 0.135048,0.15021 0.03858,0.0951 0.03858,0.21773 v 0.79099 q 0,0.0262 0.01654,0.0441 0.01792,0.0165 0.04272,0.0179 l 0.136426,0.008 z M 17.586793,8.10212 V 7.6143 q -0.190169,0.0468 -0.303168,0.0951 -0.111621,0.0468 -0.166743,0.0951 -0.05512,0.0468 -0.07304,0.0965 -0.01654,0.0482 -0.01654,0.10059 0,0.0868 0.05512,0.16123 0.0565,0.073 0.157096,0.073 0.08268,0 0.183279,-0.0455 0.100597,-0.0455 0.163987,-0.0882 z m 1.576474,-0.80615 h -0.110243 q -0.02618,-0.0317 -0.06339,-0.0537 -0.03583,-0.0234 -0.08819,-0.0234 -0.06752,0 -0.139181,0.0469 -0.07028,0.0469 -0.143316,0.12816 v 0.79375 q 0,0.0593 0.05925,0.062 l 0.186035,0.008 V 8.36792 H 18.158677 V 8.26044 l 0.139182,-0.011 q 0.02481,-0.003 0.04134,-0.0193 0.01792,-0.0165 0.01792,-0.0427 V 7.20766 h -0.20395 v -0.0923 l 0.350022,-0.10749 h 0.115755 v 0.2508 q 0.119889,-0.13918 0.208083,-0.21222 0.08957,-0.073 0.163987,-0.073 0.0441,0 0.09508,0.0138 0.05099,0.0138 0.07717,0.0289 z m 1.496549,-0.17777 -0.14745,0.0165 -0.541569,1.32016 q -0.01792,0.0455 -0.0565,0.12953 -0.03721,0.0854 -0.08957,0.17364 -0.05099,0.0896 -0.110243,0.14882 -0.05099,0.051 -0.112999,0.0786 -0.06063,0.0289 -0.132292,0.0289 -0.100596,0 -0.15434,-0.0496 -0.05237,-0.0482 -0.05237,-0.11162 0,-0.0937 0.09095,-0.1695 l 0.264583,0.12127 q 0.04685,-0.0469 0.09371,-0.12678 0.04685,-0.0799 0.08406,-0.16536 0.03859,-0.0854 0.05926,-0.14745 L 19.375489,7.13472 19.219771,7.11822 V 7.00798 h 0.624251 v 0.11024 l -0.135048,0.008 q -0.02343,0.001 -0.03858,0.0207 -0.01378,0.0179 -0.0041,0.0413 l 0.327973,0.83234 0.334863,-0.83234 q 0.0096,-0.0221 -0.0028,-0.0413 -0.0124,-0.0193 -0.03583,-0.0207 l -0.13367,-0.008 V 7.00798 h 0.502984 z"/>
	<path aria-label="1" d="m 17.622018,14.18884 h -0.953602 v -0.12678 l 0.285254,-0.011 q 0.02618,0 0.0441,-0.0179 0.01792,-0.0193 0.01792,-0.0441 v -1.4993 l -0.436838,0.0758 v -0.12678 l 0.609092,-0.18879 h 0.107487 v 1.73908 q 0,0.0248 0.01792,0.0441 0.01791,0.0179 0.0441,0.0179 l 0.264583,0.011 z"/>
	<path aria-label="2" d="m 27.21401,12.0722 h -1.324294 v -0.18879 q 0.264584,-0.21498 0.451997,-0.37621 0.187413,-0.1626 0.304546,-0.29352 0.118511,-0.13091 0.173633,-0.2508 0.05512,-0.11989 0.05512,-0.2508 0,-0.20395 -0.119889,-0.3142 -0.118511,-0.11162 -0.283876,-0.11162 -0.07855,0 -0.139182,0.0262 -0.05925,0.0248 -0.09508,0.0468 v 0.31281 q -0.01792,0.0124 -0.05374,0.0303 -0.03445,0.0179 -0.08406,0.0179 -0.06615,0 -0.118511,-0.0413 -0.05099,-0.0413 -0.05099,-0.1254 0,-0.11851 0.08544,-0.21359 0.08682,-0.0951 0.228754,-0.15021 0.141938,-0.0565 0.305924,-0.0565 0.184657,0 0.326595,0.0703 0.141938,0.0689 0.221864,0.19293 0.0813,0.12264 0.0813,0.28663 0,0.18465 -0.129535,0.36656 -0.129536,0.1819 -0.354156,0.37482 -0.223242,0.19293 -0.507118,0.41066 h 0.836469 l 0.04961,-0.24254 h 0.139182 z"/>
	<path aria-label="3" d="m 34.95097,14.17918 q 0,0.17088 -0.1006,0.30317 -0.10059,0.13092 -0.26871,0.20671 -0.16674,0.0744 -0.37069,0.0744 -0.19017,0 -0.32109,-0.0537 -0.12953,-0.0551 -0.19706,-0.13229 -0.0661,-0.0786 -0.0661,-0.14745 0,-0.0565 0.0413,-0.10336 0.0413,-0.0482 0.1254,-0.0482 0.0165,0 0.0469,0.004 0.0317,0.003 0.0496,0.0152 l 0.0841,0.2508 q 0.0551,0.0317 0.11576,0.0524 0.062,0.0207 0.12953,0.0207 0.1323,0 0.23151,-0.0634 0.0992,-0.0634 0.15434,-0.16398 0.0551,-0.10198 0.0551,-0.21498 0,-0.1378 -0.0675,-0.21497 -0.0661,-0.0772 -0.16398,-0.10886 -0.0978,-0.0317 -0.19155,-0.0317 -0.0551,0 -0.10198,0.004 -0.0469,0.004 -0.0703,0.007 v -0.17502 q 0.006,0.001 0.0276,0.003 0.0234,0 0.0455,0 0.11851,0 0.22186,-0.0372 0.10336,-0.0386 0.16675,-0.11713 0.0634,-0.0799 0.0634,-0.20395 0,-0.11851 -0.0524,-0.20119 -0.0524,-0.0827 -0.1378,-0.1254 -0.0841,-0.0427 -0.18053,-0.0427 -0.0813,0 -0.1502,0.0262 -0.0689,0.0262 -0.10336,0.0524 v 0.2825 q -0.008,0.006 -0.0413,0.0207 -0.0331,0.0152 -0.0854,0.0152 -0.051,0 -0.10749,-0.0331 -0.0565,-0.0331 -0.0565,-0.12402 0,-0.10749 0.0854,-0.19706 0.0854,-0.0896 0.22737,-0.14332 0.14194,-0.0551 0.31144,-0.0551 0.16399,0 0.2949,0.0606 0.13091,0.0593 0.20671,0.16812 0.0772,0.10887 0.0772,0.25907 0,0.15848 -0.113,0.27699 -0.113,0.11851 -0.32246,0.17777 0.11851,0.006 0.23564,0.0551 0.11713,0.0496 0.1943,0.14883 0.0785,0.0978 0.0785,0.25355 z"/>
	<path aria-label="4" d="m 53.88883,33.60319 h -0.23978 v 0.60772 h -0.26458 v -0.60772 h -0.85852 v -0.1943 l 0.92604,-1.18236 h 0.19706 v 1.18511 h 0.23978 z m -0.50436,-0.19155 v -0.82406 l -0.63528,0.82406 z"/>
	<path aria-label="5" d="m 64.32412,35.27253 q 0,0.19155 -0.091,0.34038 -0.0909,0.14745 -0.26872,0.23288 -0.17639,0.0841 -0.43684,0.0841 -0.14607,0 -0.26871,-0.0524 -0.12127,-0.0524 -0.19431,-0.12954 -0.073,-0.0786 -0.073,-0.15158 0,-0.0772 0.051,-0.11713 0.051,-0.0413 0.12678,-0.0413 0.0234,0 0.0455,0.006 0.022,0.004 0.0303,0.007 l 0.10748,0.25907 q 0.0344,0.0317 0.10198,0.0565 0.0675,0.0248 0.11575,0.0248 0.15021,0 0.25356,-0.0703 0.10335,-0.0717 0.1571,-0.17639 0.0551,-0.10473 0.0551,-0.20395 0,-0.2384 -0.13918,-0.3514 -0.13781,-0.11437 -0.34313,-0.11437 -0.0689,0 -0.14745,0.0152 -0.0772,0.0138 -0.14608,0.0331 -0.0689,0.0179 -0.11299,0.0331 -0.0427,0.0138 -0.0427,0.0138 v -0.9784 h 1.09002 v 0.23977 h -0.89021 v 0.53606 q 0.004,0 0.0593,-0.0179 0.0565,-0.0193 0.14194,-0.0372 0.0868,-0.0179 0.18052,-0.0179 0.2949,0 0.46577,0.15297 0.17226,0.15158 0.17226,0.42581 z"/>
</svg>
