<?xml version="1.0" encoding="utf-8"?>
<svg xmlns="http://www.w3.org/2000/svg" xmlns:svg="http://www.w3.org/2000/svg" version="1.1" viewBox="0 0 160 83">
	<title>A floorplan, showing a library with a table and chair, and two doors: one to the bottom into a hallway, and one to the right through a small passageway into a bedroom containing a bed and sidetable. The bedroom has another door in the same wall into the hall also opening into the library.</title>
	<path d="m145.03 81.887v-10.289h-9.0777v10.289m-11.412 0.02586 0.0917-20.371h-17.242l7e-3 20.465m-42.633-29.317v-20.948l14.585-0.0071-0.05652 30.403m-14.528-57.583v16.417h14.585v-16.417m-0.056526 65.782v11.665m-42.496-29.121h42.617m-79.415 0h15.459m-15.459 29.175h155.95v-7.7044m-155.95-70.025h155.95v42.975m-140.97-27.434h32.446v11.09h-32.446z" fill="none" stroke="#000" stroke-width="1.8"/>
	<path d="m23.816 1.8675c-0.08246 0-0.16724-0.082459-0.2591-0.25681-0.32034-0.59373-1.1918-0.52776-2.8713-0.65971-0.96808-0.075395-12.342-0.080107-13.36-0.0047121-1.71 0.12723-2.6239 0.082463-2.9254 0.69505-0.11542 0.23561-0.33918 0.31572-0.33918 0.12252 0-0.1932 0.32269-0.68091 0.6077-0.91652 0.51584-0.42645 1.3779-0.67855 2.7064-0.78929 0.93746-0.077751 12.251-0.077751 13.219 0.002355 1.3002 0.10602 2.1552 0.34635 2.6852 0.75395 0.25674 0.19791 0.54645 0.6173 0.61947 0.90003 0.03299 0.12958 0.01886 0.1555-0.08008 0.1555zm34.976 0c-0.08246 0-0.16723-0.082459-0.2591-0.25681-0.32033-0.59373-1.1918-0.52776-2.8713-0.65971-0.96807-0.075395-12.342-0.080107-13.36-0.0047122-1.71 0.12723-2.6239 0.082463-2.9254 0.69505-0.11541 0.23561-0.33918 0.31572-0.33918 0.12252 0-0.1932 0.32269-0.68091 0.6077-0.91652 0.51584-0.42645 1.3779-0.67855 2.7064-0.78929 0.93745-0.077751 12.251-0.077751 13.219 0.0023546 1.3002 0.10602 2.1552 0.34635 2.6852 0.75395 0.25675 0.19791 0.54646 0.6173 0.61948 0.90003 0.03299 0.12958 0.01887 0.1555-0.08009 0.1555zm49.857 0c-0.0821 0-0.16719-0.082459-0.25906-0.25681-0.32034-0.59373-1.1918-0.52776-2.8713-0.65971-0.96807-0.075395-12.342-0.080107-13.36-0.004712-1.71 0.12723-2.6239 0.082463-2.9254 0.69505-0.11542 0.23561-0.33918 0.31572-0.33918 0.12252 0-0.1932 0.32269-0.68091 0.6077-0.91652 0.51583-0.42645 1.3779-0.67855 2.7064-0.78929 0.93746-0.077751 12.251-0.077751 13.219 0.0023546 1.3002 0.10602 2.1552 0.34635 2.6852 0.75395 0.25676 0.19791 0.54644 0.61729 0.61946 0.90003 0.0332 0.12958 0.019 0.1555-0.0805 0.1555zm35.362 0c-0.0824 0-0.16719-0.082459-0.25907-0.25681-0.32033-0.59373-1.1918-0.52776-2.8712-0.65971-0.96812-0.075395-12.342-0.080107-13.36-0.004712-1.71 0.12723-2.6239 0.082463-2.9254 0.69505-0.11543 0.23561-0.33919 0.31572-0.33919 0.12252 0-0.1932 0.3227-0.68091 0.60769-0.91652 0.51586-0.42645 1.3779-0.67855 2.7064-0.78929 0.9374-0.077751 12.251-0.077751 13.219 0.0023546 1.3001 0.10602 2.1552 0.34635 2.6852 0.75395 0.25674 0.19791 0.54647 0.61729 0.61945 0.90003 0.0332 0.12958 0.019 0.1555-0.0805 0.1555zm13.885 24.082c0-0.06361 0.0844-0.12723 0.25669-0.20027 0.59358-0.24739 0.52763-0.91652 0.65954-2.2076 0.076-0.74453 0.0805-9.4903 5e-3 -10.273-0.12718-1.3147-0.0805-2.0168-0.69485-2.2501-0.23551-0.08948-0.31559-0.26152-0.12244-0.26152 0.19548 0 0.68068 0.24739 0.91624 0.46651 0.42634 0.39582 0.67835 1.0602 0.78905 2.0804 0.0806 0.72096 0.0783 9.4196-3e-3 10.164-0.10601 1.0013-0.34626 1.6587-0.75375 2.0663-0.19552 0.19791-0.61713 0.41938-0.89979 0.47593-0.12951 0.02588-0.15542 0.01411-0.15542-0.06124zm0.33678 13.988c-0.1931 0-0.11301 0.172 0.1225 0.26153 0.61245 0.23089 0.56766 0.93301 0.69485 2.2477 0.0546 0.56782 0.0687 3.9182 0.0427 6.7738h0.89506c0.0261-2.832 0.0118-6.2106-0.0474-6.7361-0.1107-1.0202-0.36276-1.6846-0.78905-2.0804-0.23556-0.21912-0.72314-0.46651-0.9163-0.46651zm0 36.88c-0.1931 0-0.11301-0.17199 0.1225-0.26152 0.61245-0.2309 0.56766-0.93301 0.69485-2.2477 0.0546-0.56782 0.0687-4.6226 0.0427-7.4806h0.89506c0.0261 2.832 0.0118 6.9175-0.0474 7.4429-0.1107 1.0202-0.36276 1.6846-0.78905 2.0804-0.23556 0.21911-0.72314 0.4665-0.9163 0.4665z" stroke-width=".25"/>
	<path aria-label="⨀" d="m53.043 27.145q0.30835 0 0.49905 0.20287 0.1907 0.20286 0.1907 0.51949 0 0.32872-0.1907 0.53165-0.1907 0.19885-0.49905 0.19885-0.30024 0-0.49094-0.19885-0.18665-0.20286-0.18665-0.53165 0-0.32062 0.18665-0.51949 0.1907-0.20287 0.49094-0.20287zm-0.0039-2.4594q0.87232 0 1.6067 0.40178 0.73437 0.39773 1.1482 1.1323 0.4179 0.73053 0.4179 1.6478 0 0.89286-0.40573 1.6234-0.40573 0.73053-1.1442 1.1445-0.73437 0.41396-1.6229 0.41396-0.8845 0-1.6229-0.40988-0.73437-0.40991-1.1401-1.1404-0.40573-0.73053-0.40573-1.6315 0-0.91317 0.41384-1.6437 0.41385-0.73458 1.1442-1.1364 0.73031-0.40178 1.6108-0.40178zm-0.0039 0.56412q-0.69381 0-1.2699 0.3328-0.57208 0.32875-0.89667 0.93347-0.32459 0.60065-0.32459 1.3515 0 0.74676 0.31647 1.3474 0.32053 0.5966 0.90072 0.93346 0.5802 0.33685 1.274 0.33685 0.71814 0 1.2943-0.33685 0.58019-0.33685 0.89261-0.93751 0.31647-0.60066 0.31647-1.3433 0-0.75489-0.32459-1.3555-0.32054-0.60472-0.89668-0.93346-0.57208-0.32875-1.2821-0.32875z" stroke-width="2.3558"/>
	<g>
		<path aria-label="Bedroom" d="m109.1 12.877q0 0.40262-0.1623 0.66234-0.1623 0.25649-0.42199 0.40261-0.25643 0.14278-0.54853 0.19815-0.29209 0.05511-0.55506 0.05511h-1.8598v-0.28569l0.35055-0.02588q0.0716-0.0072 0.10387-0.0521 0.0361-0.04546 0.0361-0.09423v-3.5455q0-0.04878-0.0361-0.09423-0.0327-0.04878-0.10387-0.05186l-0.35055-0.02588v-0.28571h1.7787q0.79522 0 1.1458 0.28573 0.3506 0.28569 0.3506 0.7857 0 0.33117-0.15903 0.53898-0.15567 0.20781-0.37973 0.32142-0.22075 0.1105-0.41875 0.16234 0.29864 0 0.58105 0.1006 0.28235 0.0973 0.4641 0.32792 0.18495 0.22736 0.18495 0.62014zm-0.99003-2.026q0-0.3896-0.25642-0.60063-0.25316-0.21111-0.76602-0.21111-0.10388 0-0.224 0.0094-0.12013 0.0094-0.15596 0.0094v1.6818t0.0907 0.0024q0.0943 0.0024 0.14931 0.0024 0.64917 0 0.90561-0.23372 0.25642-0.23372 0.25642-0.66234zm0.26617 2.0812q0-0.45456-0.27265-0.6656-0.26939-0.21111-0.79848-0.21111-0.10718 0-0.24018 0.0094-0.13312 0.0094-0.23694 0.01887-0.1006 0.0094-0.12018 0.0094v1.7565t0.0749 0.0072q0.0785 0.0024 0.17524 0.0094 0.1006 0.0024 0.1623 0.0024 0.69788 0 0.97702-0.23373 0.27912-0.23372 0.27912-0.70454zm4.0151 0.9318q-0.27915 0.172-0.60377 0.29223-0.3213 0.12016-0.65887 0.12016-0.40252 0-0.75631-0.17859-0.35055-0.18189-0.56804-0.54871-0.21736-0.36689-0.21736-0.92208 0-0.5195 0.20111-0.90584 0.20117-0.38638 0.55505-0.59742 0.35383-0.21417 0.80497-0.21417 0.61998 0 0.93158 0.38638 0.31161 0.3831 0.31161 0.97726 0 0.03252 0 0.08765 0 0.05186-7e-3 0.09731h-2.1553q0 0.25326 0.0525 0.50651 0.0555 0.25001 0.18182 0.45454 0.12648 0.20451 0.34081 0.32792 0.21414 0.12346 0.53555 0.12346 0.28567 0 0.55506-0.12982 0.27265-0.13312 0.49664-0.28247zm-0.66541-1.7046v-0.14608q0-0.32792-0.15898-0.55194-0.15572-0.22406-0.48687-0.22406-0.32782 0-0.55827 0.24676-0.2304 0.24675-0.25644 0.67533zm4.4695 2.0357h-1.0452v-0.35389q-0.22731 0.1753-0.48365 0.30519-0.25641 0.12982-0.54527 0.12982-0.33436 0-0.57777-0.13972-0.24021-0.14278-0.39602-0.37663-0.1526-0.23372-0.22728-0.51624-0.0748-0.28247-0.0748-0.56494 0-0.45131 0.18515-0.85389 0.1849-0.40586 0.56153-0.65912 0.37652-0.25648 0.94779-0.25648 0.15897 0 0.34404 0.03252 0.18823 0.0292 0.26618 0.04878v-1.2175h-0.50311v-0.22077l0.85691-0.25651h0.26612v4.4741q0 0.13642 0.13971 0.14608l0.28562 0.01887zm-1.0452-0.60388v-2.263q-0.0843-0.0292-0.25316-0.06172-0.16563-0.03584-0.3116-0.03584-0.4934 0-0.78878 0.36689-0.29538 0.36364-0.29538 0.96755 0 0.54221 0.25317 0.89935 0.25322 0.35716 0.71089 0.35716 0.2011 0 0.37651-0.07465 0.17851-0.07798 0.30835-0.15573zm3.7489-1.9221h-0.25962q-0.0621-0.07465-0.14938-0.12652-0.084-0.05515-0.20774-0.05515-0.15899 0-0.32778 0.1105-0.16562 0.1105-0.33757 0.30196v1.8701q0 0.13972 0.13966 0.14608l0.43821 0.01887v0.25974h-1.6619v-0.25323l0.32783-0.02588q0.0589-0.0072 0.0973-0.04546 0.0425-0.03887 0.0425-0.1006v-2.3084h-0.48039v-0.21748l0.82444-0.25325h0.27267v0.59091q0.28233-0.32792 0.49009-0.50001 0.21106-0.17199 0.38627-0.17199 0.10387 0 0.22401 0.03252 0.12013 0.03252 0.18182 0.06812zm3.4569 0.92859q0 0.47077-0.19476 0.85389-0.19482 0.37987-0.55186 0.60391-0.35377 0.22077-0.84063 0.22077-0.48365 0-0.83745-0.22077-0.35383-0.22076-0.54532-0.60066-0.1915-0.37988-0.1915-0.85714 0-0.47405 0.1915-0.85715 0.19481-0.38312 0.55184-0.60716 0.36023-0.22406 0.85038-0.22406 0.49662 0 0.84717 0.22736 0.35058 0.22736 0.53555 0.61039 0.18514 0.38312 0.18514 0.85067zm-0.69133-0.0072q0-0.36364-0.0973-0.67857-0.0938-0.31494-0.29218-0.50974-0.19481-0.19485-0.49334-0.19485-0.30838 0-0.50637 0.19485-0.19476 0.19485-0.28884 0.50974-0.0941 0.31494-0.0941 0.67857 0 0.36039 0.0941 0.67858 0.0972 0.31494 0.29211 0.50974 0.19809 0.19486 0.49662 0.19486 0.30505 0 0.49982-0.19486 0.19814-0.19485 0.29218-0.50974 0.0973-0.31494 0.0973-0.67858zm4.3072 0.0072q0 0.47077-0.19476 0.85389-0.19481 0.37987-0.55186 0.60391-0.35379 0.22077-0.84061 0.22077-0.48364 0-0.83747-0.22077-0.35381-0.22076-0.5453-0.60066-0.19151-0.37988-0.19151-0.85714 0-0.47405 0.19151-0.85715 0.1948-0.38312 0.55185-0.60716 0.36023-0.22406 0.85035-0.22406 0.49663 0 0.84717 0.22736 0.35061 0.22736 0.53556 0.61039 0.18514 0.38312 0.18514 0.85067zm-0.69133-0.0072q0-0.36364-0.0973-0.67857-0.0938-0.31494-0.29215-0.50974-0.19481-0.19485-0.49338-0.19485-0.30837 0-0.50636 0.19485-0.19476 0.19485-0.28882 0.50974-0.094 0.31494-0.094 0.67857 0 0.36039 0.094 0.67858 0.0972 0.31494 0.29209 0.50974 0.19809 0.19486 0.49657 0.19486 0.30511 0 0.4999-0.19486 0.19813-0.19485 0.29215-0.50974 0.0973-0.31494 0.0973-0.67858zm6.4235 1.6039h-1.4899v-0.25973l0.2792-0.01887q0.13963-0.0094 0.13963-0.14608v-1.6948q0-0.30844-0.12978-0.49351-0.12649-0.18519-0.4609-0.18519-0.16562 0-0.36351 0.0521-0.19481 0.0521-0.34733 0.13312v2.1883q0 0.13642 0.13971 0.14608l0.27909 0.01887v0.25974h-1.4574v-0.25973l0.27915-0.01887q0.13963-0.0094 0.13963-0.14608v-1.737q0-0.28247-0.13299-0.45779-0.13312-0.17859-0.45121-0.17859-0.18823 0-0.39281 0.06504-0.20442 0.06172-0.31807 0.12652v2.1818q0 0.13642 0.13945 0.14608l0.27917 0.01887v0.25974h-1.5029v-0.25974l0.32464-0.01887q0.13964-0.0094 0.13964-0.14608v-2.3084h-0.45767v-0.21746l0.80496-0.25325h0.27267v0.33117q0.14936-0.0909 0.3343-0.18495 0.18823-0.09423 0.38301-0.15904 0.19482-0.06812 0.3668-0.06812 0.28886 0 0.46739 0.14937 0.17856 0.14608 0.26297 0.31169 0.13305-0.08438 0.33759-0.19155 0.20442-0.1105 0.42188-0.18825 0.22072-0.08106 0.39606-0.08106 0.35055 0 0.53553 0.16234 0.18514 0.15904 0.25317 0.3961 0.0686 0.23372 0.0686 0.46104v1.8409q0 0.06172 0.0391 0.1039 0.0425 0.03888 0.10053 0.04213l0.32135 0.01887z"/>
		<path aria-label="Door" d="m85.775 66.386q0 0.43506-0.12658 0.83766-0.12658 0.40261-0.40248 0.72079-0.27266 0.31494-0.7141 0.5-0.43819 0.18182-1.0646 0.18182h-1.8469v-0.28571l0.35054-0.02589q0.07147-0.0067 0.1071-0.05197 0.03898-0.04545 0.03898-0.09413v-3.5455q0-0.04871-0.03898-0.09414-0.03572-0.04871-0.1071-0.05198l-0.35054-0.02589v-0.28572h1.7138q0.69786 0 1.2497 0.23701 0.5518 0.23377 0.86989 0.72403 0.32134 0.49026 0.32134 1.2597zm-0.75303 0.01298q0-0.69806-0.21423-1.1169-0.21098-0.42208-0.60048-0.6104-0.38626-0.18832-0.91208-0.18832h-0.50636v3.8247l0.53881-0.0067q0.51285-0.0067 0.89262-0.19481 0.37976-0.19155 0.59074-0.60715 0.21098-0.41558 0.21098-1.1007zm4.3981 0.62987q0 0.47079-0.19474 0.8539-0.19475 0.37987-0.55179 0.6039-0.3538 0.22079-0.84068 0.22079-0.48363 0-0.83743-0.22079-0.3538-0.22079-0.5453-0.60066-0.1915-0.37987-0.1915-0.85715 0-0.47402 0.1915-0.85715 0.19474-0.38312 0.55179-0.60715 0.36029-0.22402 0.85042-0.22402 0.49661 0 0.84716 0.22727 0.35055 0.22726 0.53556 0.6104 0.18502 0.38312 0.18502 0.85065zm-0.69136-0.0067q0-0.36363-0.09738-0.67858-0.0941-0.31494-0.29212-0.50975-0.19474-0.1948-0.49337-0.1948-0.30835 0-0.50635 0.1948-0.19475 0.19481-0.28888 0.50975-0.0941 0.31494-0.0941 0.67858 0 0.36039 0.0941 0.67858 0.09737 0.31494 0.29213 0.50975 0.198 0.1948 0.49662 0.1948 0.30511 0 0.49986-0.1948 0.19799-0.19481 0.29212-0.50975 0.09738-0.31494 0.09738-0.67858zm4.3072 0.0067q0 0.47079-0.19475 0.8539-0.19474 0.37987-0.55179 0.6039-0.3538 0.22079-0.84068 0.22079-0.48362 0-0.83742-0.22079-0.3538-0.22079-0.54531-0.60066-0.19149-0.37987-0.19149-0.85715 0-0.47402 0.19149-0.85715 0.19475-0.38312 0.5518-0.60715 0.36029-0.22402 0.85042-0.22402 0.49661 0 0.84717 0.22727 0.35054 0.22726 0.53556 0.6104 0.18503 0.38312 0.18503 0.85065zm-0.69136-0.0067q0-0.36363-0.09737-0.67858-0.09411-0.31494-0.29213-0.50975-0.19474-0.1948-0.49337-0.1948-0.30835 0-0.50635 0.1948-0.19475 0.19481-0.28889 0.50975-0.0941 0.31494-0.0941 0.67858 0 0.36039 0.0941 0.67858 0.09738 0.31494 0.29214 0.50975 0.19799 0.1948 0.49661 0.1948 0.30511 0 0.49986-0.1948 0.198-0.19481 0.29213-0.50975 0.09737-0.31494 0.09737-0.67858zm3.4504-0.92208h-0.25969q-0.06212-0.07463-0.14934-0.12662-0.08409-0.05523-0.20771-0.05523-0.15903 0-0.32781 0.11039-0.16555 0.11038-0.33757 0.30195v1.8701q0 0.13962 0.13958 0.1461l0.43821 0.0196v0.25974h-1.6619v-0.25325l0.32784-0.02589q0.0584-0.0067 0.09738-0.04545 0.04216-0.03898 0.04216-0.10065v-2.3084h-0.48039v-0.21754l0.82445-0.25325h0.27267v0.59091q0.28239-0.32792 0.49012-0.5 0.21099-0.17209 0.38627-0.17209 0.10393 0 0.22396 0.03246 0.12015 0.03245 0.18181 0.06821z"/>
		<path aria-label="Door" d="m22.928 48.885q0 0.43505-0.12658 0.83766-0.12658 0.40261-0.40248 0.7208-0.27266 0.31494-0.71409 0.49999-0.43819 0.18189-1.0646 0.18189h-1.8469v-0.2857l0.35055-0.02586q0.07141-0.0072 0.1071-0.0521 0.03898-0.04545 0.03898-0.09423v-3.5455q0-0.04878-0.03898-0.09423-0.03573-0.04878-0.1071-0.0521l-0.35055-0.02587v-0.28572h1.7138q0.69786 0 1.2497 0.23702 0.55179 0.23372 0.86989 0.72403 0.32134 0.49025 0.32134 1.2597zm-0.75304 0.01411q0-0.69806-0.21423-1.1169-0.21097-0.42209-0.60048-0.61042-0.38626-0.18825-0.91208-0.18825h-0.50635v3.8247l0.53881-0.0071q0.51284-0.0072 0.89261-0.19485 0.37977-0.19155 0.59075-0.60716 0.21097-0.41558 0.21097-1.1007zm4.3981 0.62988q0 0.47076-0.19474 0.8539-0.19475 0.37987-0.55179 0.60391-0.3538 0.22076-0.84068 0.22076-0.48363 0-0.83743-0.22076-0.35379-0.22077-0.5453-0.60066-0.19149-0.37987-0.19149-0.85714 0-0.47402 0.19149-0.85715 0.19475-0.38311 0.5518-0.60716 0.36029-0.22406 0.85042-0.22406 0.49662 0 0.84717 0.22736 0.35055 0.22737 0.53557 0.61039 0.18501 0.38313 0.18501 0.85068zm-0.69137-0.0071q0-0.36364-0.09737-0.67858-0.09411-0.31494-0.29212-0.50974-0.19475-0.19485-0.49338-0.19485-0.30835 0-0.50636 0.19485-0.19474 0.19484-0.28887 0.50974-0.09411 0.31493-0.09411 0.67858 0 0.36042 0.09411 0.67858 0.09737 0.31493 0.29212 0.50973 0.198 0.19485 0.49661 0.19485 0.30511 0 0.49987-0.19485 0.19799-0.19484 0.29212-0.50973 0.09737-0.31494 0.09737-0.67858zm4.3073 0.0071q0 0.47076-0.19474 0.8539-0.19474 0.37987-0.55179 0.60391-0.3538 0.22076-0.84068 0.22076-0.48364 0-0.83743-0.22076-0.3538-0.22077-0.54531-0.60066-0.19152-0.37987-0.19152-0.85714 0-0.47402 0.19152-0.85715 0.19476-0.38311 0.55179-0.60716 0.36029-0.22406 0.85042-0.22406 0.49662 0 0.84716 0.22736 0.35055 0.22737 0.53557 0.61039 0.18501 0.38313 0.18501 0.85068zm-0.69136-0.0072q0-0.36364-0.09737-0.67858-0.09411-0.31494-0.29213-0.50974-0.19475-0.19485-0.49337-0.19485-0.30836 0-0.50636 0.19485-0.19475 0.19484-0.28888 0.50974-0.09411 0.31493-0.09411 0.67858 0 0.36042 0.09411 0.67858 0.09737 0.31494 0.29213 0.50974 0.198 0.19485 0.49662 0.19485 0.30511 0 0.49986-0.19485 0.19799-0.19485 0.29213-0.50974 0.09737-0.31494 0.09737-0.67858zm3.4503-0.92208h-0.25966q-0.06165-0.07465-0.14932-0.12653-0.08443-0.05515-0.20772-0.05515-0.15904 0-0.32783 0.11051-0.16554 0.1105-0.33757 0.30195v1.8702q0 0.13972 0.13959 0.14608l0.43819 0.01887v0.25973h-1.6619v-0.25323l0.32783-0.02586q0.0584-0.0071 0.09737-0.04546 0.04217-0.03889 0.04217-0.10061v-2.3084h-0.48039v-0.21747l0.82444-0.25325h0.27266v0.5909q0.28239-0.32792 0.49013-0.49998 0.21097-0.172 0.38625-0.172 0.10388 0 0.22395 0.0325 0.12011 0.0325 0.18177 0.06812z"/>
		<path aria-label="Hall" d="m28.735 67.952h-1.6813v-0.28572l0.37976-0.02586q0.0682-0.0071 0.10387-0.0521 0.03573-0.04545 0.03573-0.09423v-1.7176h-2.1877v1.7175q0 0.04878 0.03246 0.09423 0.03573 0.04546 0.10712 0.0521l0.37977 0.02586v0.28572h-1.6813v-0.28572l0.34406-0.02586q0.07141-0.0071 0.10712-0.0521 0.03899-0.04545 0.03899-0.09423v-3.5455q0-0.04877-0.03899-0.09091-0.03574-0.04545-0.10712-0.04878l-0.34406-0.025854v-0.29223h1.6814v0.29223l-0.37977 0.02586q-0.07143 0.0025-0.10712 0.04878-0.03246 0.04213-0.03246 0.09091v1.4968h2.1877v-1.4968q0-0.04877-0.03573-0.09091-0.03573-0.04545-0.10387-0.04878l-0.37976-0.02586v-0.29223h1.6813v0.29223l-0.34406 0.02586q-0.07145 0.0025-0.11035 0.04878-0.03573 0.04213-0.03573 0.09092v3.5455q0 0.04878 0.03573 0.09423 0.03898 0.04546 0.11035 0.0521l0.34406 0.02586zm3.4861 0h-0.98349l-0.08767-0.39288q-0.12657 0.10061-0.31485 0.21111-0.18827 0.1105-0.39599 0.18519-0.20772 0.07797-0.39924 0.07797-0.36029 0-0.61346-0.24027-0.24994-0.24025-0.24994-0.65909 0-0.18518 0.06492-0.34415 0.0682-0.15903 0.26616-0.30196 0.20125-0.14608 0.594-0.28246 0.39599-0.13948 1.0484-0.28248 0-0.0094 0-0.1039 0-0.0973 0-0.18188 0-0.65587-0.61996-0.65587-0.17204 0-0.29862 0.0325-0.12335 0.03251-0.17205 0.05186v0.57793h-0.4836q-0.09084 0-0.16879-0.0325-0.07787-0.03583-0.07787-0.15904 0-0.27274 0.20772-0.44481 0.20775-0.17528 0.52583-0.2565 0.32134-0.08438 0.64917-0.08438 0.41223 0 0.63944 0.12982 0.22721 0.12652 0.31809 0.35392 0.09084 0.22406 0.09084 0.51299v1.8636q0 0.06172 0.03902 0.10391 0.04217 0.03888 0.10062 0.04212l0.32134 0.01887zm-1.0711-0.62662v-1.1494q-0.44793 0.11049-0.71409 0.22406-0.26292 0.1105-0.39274 0.22407-0.12984 0.1105-0.17204 0.22736-0.03901 0.11356-0.03901 0.23703 0 0.2045 0.12983 0.37986 0.13308 0.172 0.37003 0.172 0.19474 0 0.4317-0.1072 0.23695-0.1072 0.38626-0.2078zm2.9765 0.62662h-1.6164v-0.25976l0.3538-0.01887q0.04542-0.0025 0.0941-0.04878 0.05197-0.04877 0.05197-0.09091v-4.0033h-0.50636v-0.22077l0.85042-0.25648h0.27265v4.4805q0 0.04213 0.04869 0.09091 0.04869 0.04545 0.09084 0.04877l0.36029 0.01887zm1.9735 0h-1.6164v-0.25976l0.3538-0.01887q0.04542-0.0025 0.09411-0.04878 0.05196-0.04877 0.05196-0.09091v-4.0033h-0.50636v-0.22077l0.85042-0.25648h0.27265v4.4805q0 0.04213 0.04869 0.09091 0.04869 0.04545 0.09084 0.04877l0.36029 0.01887z"/>
		<path aria-label="Library" d="m21.188 14.195h-3.2329v-0.2857l0.38626-0.02588q0.07143-0.0072 0.10388-0.0521 0.03573-0.04546 0.03573-0.09423v-3.5455q0-0.04878-0.03573-0.09423-0.03246-0.04878-0.10388-0.05186l-0.38626-0.02589v-0.28572h1.6976v0.28573l-0.3538 0.02588q-0.0714 0.0024-0.11035 0.05186-0.03573 0.04546-0.03573 0.09423v3.6786h1.3957q0.04542 0 0.09411-0.03584t0.05197-0.07798l0.10712-0.79871h0.38625zm1.5645-4.302q0 0.16893-0.11685 0.29222-0.11686 0.12016-0.28564 0.12016-0.16878 0-0.29212-0.12016-0.1201-0.12346-0.1201-0.29222 0-0.17199 0.1201-0.28895 0.12333-0.11686 0.29212-0.11686 0.16879 0 0.28564 0.11686 0.11685 0.11686 0.11685 0.28895zm0.34081 4.302h-1.5613v-0.25973l0.32459-0.01887q0.13955-0.0094 0.13955-0.14607v-2.3734h-0.45766v-0.23373l0.81146-0.25326h0.26292v2.8604q0 0.06172 0.03895 0.1039 0.04215 0.03887 0.10063 0.04213l0.34081 0.01887zm3.6905-1.7565q0 0.50001-0.19799 0.89937-0.198 0.3961-0.61997 0.62662-0.42196 0.23042-1.0906 0.23042h-0.95753v-4.422h-0.5031v-0.22077l0.8569-0.25651h0.26616v1.8604q0.1136-0.05516 0.36678-0.14937 0.25642-0.09731 0.54855-0.09731 0.43819 0 0.73356 0.21111 0.29538 0.2111 0.44468 0.56169 0.15256 0.34741 0.15256 0.75649zm-0.67838 0.13312q0-0.62987-0.26616-0.94804-0.26616-0.32144-0.74979-0.32144-0.11035 0-0.28239 0.03584-0.16879 0.03584-0.2694 0.07141v2.4675q0.08115 0.0024 0.16229 0.0072 0.08115 0 0.16229 0 0.59075 0 0.91533-0.29221 0.32783-0.29222 0.32783-1.0195zm3.4374-0.9026h-0.25967q-0.06164-0.07465-0.1493-0.12652-0.08443-0.05515-0.20773-0.05515-0.15904 0-0.32782 0.1105-0.16555 0.1105-0.33757 0.30196v1.8701q0 0.13972 0.13958 0.14608l0.43819 0.01887v0.25974h-1.6619v-0.25323l0.32783-0.02588q0.0584-0.0072 0.09737-0.04546 0.04217-0.03887 0.04217-0.1006v-2.3084h-0.48038v-0.21747l0.82445-0.25325h0.27266v0.5909q0.28238-0.32792 0.49012-0.50001 0.21098-0.17199 0.38626-0.17199 0.10387 0 0.22395 0.03252 0.12011 0.03252 0.18177 0.06812zm3.34 2.526h-0.9835l-0.08763-0.39285q-0.12658 0.1006-0.31486 0.2111-0.18827 0.1105-0.39599 0.18519-0.20772 0.07797-0.39925 0.07797-0.36028 0-0.61346-0.24025-0.24994-0.24027-0.24994-0.65909 0-0.18519 0.06492-0.34415 0.0682-0.15904 0.26616-0.30196 0.20125-0.14607 0.594-0.28247 0.39599-0.13972 1.0484-0.28247 0-0.0094 0-0.1039 0-0.09731 0-0.18189 0-0.65584-0.61996-0.65584-0.17204 0-0.29862 0.03252-0.12336 0.03252-0.17204 0.0521v0.57792h-0.48362q-0.09087 0-0.16879-0.03252-0.07788-0.03584-0.07788-0.15904 0-0.27272 0.20772-0.44481 0.20775-0.1753 0.52583-0.25649 0.32134-0.08438 0.64917-0.08438 0.41223 0 0.63944 0.12982 0.2272 0.12652 0.31809 0.35391 0.09084 0.22406 0.09084 0.51299v1.8636q0 0.06172 0.03901 0.1039 0.04218 0.03892 0.10062 0.04214l0.32134 0.01887zm-1.0711-0.62662v-1.1494q-0.44793 0.11027-0.71409 0.22406-0.26292 0.11026-0.39275 0.22406-0.12983 0.11026-0.17204 0.22736-0.039 0.11356-0.039 0.237 0 0.20451 0.12983 0.37987 0.13308 0.17199 0.37003 0.17199 0.19475 0 0.43169-0.1072 0.23695-0.1072 0.38626-0.20781zm3.7133-1.8994h-0.25967q-0.06165-0.07465-0.14931-0.12652-0.08443-0.05515-0.20773-0.05515-0.15903 0-0.32783 0.1105-0.16553 0.1105-0.33756 0.30196v1.8701q0 0.13972 0.13956 0.14608l0.43818 0.01887v0.25974h-1.6619v-0.25323l0.32783-0.02588q0.05841-0.0072 0.09738-0.04546 0.04217-0.03887 0.04217-0.1006v-2.3085h-0.48038v-0.21747l0.82445-0.25325h0.27265v0.59091q0.28239-0.32792 0.49012-0.50001 0.21097-0.17199 0.38626-0.17199 0.10387 0 0.22395 0.03252 0.1201 0.03252 0.18177 0.06812zm3.525-0.41884-0.3473 0.0389-1.2756 3.1104q-0.04216 0.1072-0.13308 0.30519-0.08765 0.20121-0.21097 0.40911-0.12011 0.21111-0.25967 0.35063-0.1201 0.12016-0.26615 0.18519-0.14281 0.06812-0.31161 0.06812-0.23694 0-0.36353-0.11686-0.12336-0.11356-0.12336-0.26299 0-0.22077 0.21422-0.39936l0.6232 0.28572q0.11035-0.1105 0.22073-0.29871 0.11035-0.18825 0.198-0.3896 0.09086-0.20121 0.13958-0.34741l-1.1296-2.8994-0.36678-0.03889v-0.25973h1.4704v0.25974l-0.3181 0.01887q-0.05518 0.0024-0.09083 0.04878-0.03246 0.04213-0.0096 0.09731l0.77251 1.9611 0.78875-1.9611q0.02267-0.0521-0.0067-0.09731-0.0292-0.04546-0.08443-0.04878l-0.31485-0.01887v-0.25974h1.1847z"/>
		<path aria-label="1" d="m31.895 27.909h-2.2461v-0.29871l0.6719-0.02589q0.06165 0 0.10387-0.04214 0.04217-0.04546 0.04217-0.1039v-3.5325l-1.0289 0.17859v-0.29872l1.4347-0.44481h0.25318v4.0974q0 0.05839 0.04217 0.1039 0.04214 0.04214 0.10387 0.04214l0.62321 0.02589z"/>
		<path aria-label="2" d="m54.488 22.922h-3.1193v-0.44481q0.6232-0.50652 1.0646-0.88638 0.44144-0.3831 0.71734-0.69156 0.27914-0.30843 0.40897-0.59091 0.12984-0.28247 0.12984-0.5909 0-0.48052-0.28238-0.74029-0.27915-0.26299-0.66866-0.26299-0.18502 0-0.32783 0.06172-0.13956 0.05839-0.22396 0.11026v0.73701q-0.04217 0.0292-0.12659 0.07141-0.08115 0.04213-0.19799 0.04213-0.1558 0-0.27914-0.09731-0.1201-0.09731-0.1201-0.29545 0-0.27922 0.20124-0.50324 0.2045-0.22406 0.53881-0.3539 0.33432-0.13312 0.72058-0.13312 0.43494 0 0.76927 0.16563 0.33433 0.16234 0.52258 0.45456 0.1915 0.28895 0.1915 0.67533 0 0.43505-0.30511 0.86365-0.30511 0.42858-0.83418 0.88312-0.52583 0.45456-1.1945 0.96755h1.9702l0.11685-0.57145h0.32783z"/>
		<path aria-label="3" d="m72.712 27.886q0 0.40261-0.23696 0.7143-0.23693 0.30846-0.63292 0.48703-0.39275 0.17529-0.87314 0.17529-0.44793 0-0.7563-0.12652-0.3051-0.12982-0.46416-0.31168-0.1557-0.18519-0.1557-0.34741 0-0.13311 0.09728-0.24352 0.09727-0.11357 0.29537-0.11357 0.03887 0 0.11046 0.0094 0.07464 0.0072 0.11683 0.03584l0.1981 0.5909q0.12978 0.07465 0.27266 0.12346 0.14604 0.04878 0.3051 0.04878 0.31163 0 0.5453-0.14938 0.23366-0.14938 0.36354-0.38636 0.12978-0.24027 0.12978-0.50651 0-0.32467-0.159-0.50648-0.15568-0.1819-0.38624-0.25649-0.23036-0.07465-0.45118-0.07465-0.12978 0-0.2402 0.0094-0.11047 0.0094-0.16559 0.01648v-0.41251q0.01411 0.0025 0.06502 0.0072 0.05514 0 0.10717 0 0.27914 0 0.52257-0.08766 0.24346-0.0909 0.39277-0.27597 0.14932-0.18825 0.14932-0.48052 0-0.27922-0.12341-0.47402-0.12343-0.19485-0.32458-0.29546-0.1981-0.1006-0.42523-0.1006-0.1915 0-0.35378 0.06172-0.16229 0.06172-0.24346 0.12346v0.66559q-0.01887 0.01411-0.09727 0.04878-0.07796 0.03584-0.20116 0.03584-0.12013 0-0.25319-0.07798-0.13308-0.07798-0.13308-0.2922 0-0.25326 0.20116-0.46429 0.20115-0.21111 0.53555-0.33767 0.33433-0.12982 0.73357-0.12982 0.38626 0 0.69461 0.14278 0.30835 0.13971 0.48689 0.3961 0.18183 0.25651 0.18183 0.61039 0 0.3734-0.26616 0.65262-0.26616 0.27923-0.75954 0.41884 0.27914 0.01411 0.55504 0.12982 0.27588 0.11686 0.45766 0.35066 0.1849 0.23043 0.1849 0.59738z"/>
		<path aria-label="4" d="m117.32 73.651h-0.5648v1.4318h-0.62321v-1.4318h-2.0222v-0.45779l2.1812-2.7857h0.46417v2.7922h0.5648zm-1.188-0.45131v-1.9416l-1.4964 1.9416z"/>
		<path aria-label="5" d="m141.9 77.584q0 0.45131-0.21427 0.80196-0.21415 0.34741-0.63301 0.54869-0.41547 0.19814-1.0289 0.19814-0.34411 0-0.63298-0.12345-0.28563-0.12346-0.45765-0.30521-0.17196-0.18519-0.17196-0.35714 0-0.18189 0.12011-0.27596 0.12015-0.09731 0.2986-0.09731 0.0555 0 0.10724 0.01411 0.0522 0.0094 0.0716 0.01651l0.25315 0.61039q0.0815 0.07465 0.2402 0.13312 0.15898 0.05839 0.27264 0.05839 0.35383 0 0.59728-0.16562 0.24346-0.16893 0.37005-0.41559 0.1298-0.24675 0.1298-0.48053 0-0.56169-0.32789-0.82793-0.32458-0.26946-0.80817-0.26946-0.16229 0-0.34737 0.03583-0.18178 0.0325-0.34404 0.07797-0.1623 0.04213-0.26609 0.07798-0.10061 0.0325-0.10061 0.0325v-2.3052h2.5674v0.56492h-2.0968v1.263q0.01 0 0.13975-0.04213 0.13302-0.04545 0.33432-0.08765 0.20444-0.04213 0.42516-0.04213 0.69465 0 1.0971 0.36041 0.40567 0.35714 0.40567 1.0032z"/>
	</g>
</svg>
