<?xml version="1.0" encoding="utf-8"?>
<svg xmlns="http://www.w3.org/2000/svg" viewBox="0 0 640 329">
	<title>A floorplan, showing a library with a table and chair, and two doors: one to the bottom into a hallway, and one to the right through a small passageway into a bedroom containing a bed and sidetable. The bedroom has another door in the same wall into the hall also opening into the library.</title>
	<path d="M 580.13194,327.55012 V 286.39388 H 543.8207 v 41.15624 m -45.64815,0.10361 0.36745,-81.48318 h -68.96689 l 0.0282,81.86015 M 259.06846,210.76315 V 126.971 l 58.33921,-0.0282 -0.22614,121.61216 M 259.06857,18.223225 v 65.669057 h 58.33919 V 18.223225 m -0.22613,263.128595 v 46.6601 M 147.19528,211.52663 H 317.66215 M 0,211.52663 H 61.834637 M 0,328.22868 H 623.81097 V 297.41097 M 0,17.309061 H 623.81097 V 189.2097 M 59.91261,79.472248 H 189.69656 V 123.83279 H 59.91261 Z" fill="none" stroke="#000" stroke-width="1.54265"/>
	<path d="m 95.26284,7.4700105 c -0.32976,0 -0.668942,-0.329853 -1.036389,-1.027257 C 92.9451,4.0678106 89.459071,4.3316931 82.741395,3.803928 78.869076,3.502348 33.371673,3.4834992 29.301495,3.7850792 22.46134,4.2939956 18.805719,4.1149325 17.599741,6.5652704 17.138077,7.5077081 16.243018,7.8281371 16.243018,7.055338 c 0,-0.772799 1.290771,-2.7236449 2.430798,-3.6660826 2.063354,-1.705812 5.511695,-2.71422052 10.825535,-3.15716612 3.749839,-0.3110045 49.00228,-0.3110045 52.874599,0.00942 5.200781,0.4240969 8.620859,1.38538352 10.74074,3.01580042 1.026967,0.7916477 2.185836,2.469187 2.47791,3.6001121 0.131904,0.5183408 0.07538,0.6220088 -0.320339,0.6220088 z m 139.90287,0 c -0.32977,0 -0.66895,-0.329853 -1.0364,-1.027257 -1.28134,-2.3749429 -4.76737,-2.1110604 -11.48505,-2.6388255 -3.87231,-0.30158 -49.36972,-0.3204288 -53.43989,-0.018849 -6.84016,0.5089164 -10.49579,0.3298533 -11.70176,2.7801912 -0.46166,0.9424377 -1.35673,1.2628669 -1.35673,0.4900676 0,-0.7727989 1.29077,-2.7236448 2.4308,-3.6660826 2.06336,-1.705812 5.51171,-2.71422052 10.82554,-3.15716622 3.74984,-0.3110044 49.00228,-0.3110044 52.8746,0.00942 5.20076,0.4240969 8.62085,1.38538332 10.74074,3.01580032 1.02697,0.7916478 2.18585,2.469187 2.47791,3.6001121 0.13192,0.5183408 0.0754,0.6220089 -0.32033,0.6220089 z m 199.42918,0 c -0.32976,0 -0.66894,-0.329853 -1.03639,-1.027257 -1.28135,-2.3749429 -4.76737,-2.1110604 -11.48504,-2.6388255 -3.87233,-0.30158 -49.36975,-0.3204288 -53.43991,-0.018849 -6.84014,0.5089164 -10.49578,0.3298533 -11.70174,2.7801912 -0.46168,0.9424377 -1.35674,1.2628669 -1.35674,0.4900676 0,-0.7727989 1.29076,-2.7236448 2.43081,-3.6660826 2.06334,-1.705812 5.5117,-2.71422052 10.82552,-3.15716622 3.74985,-0.3110044 49.00229,-0.3110044 52.8746,0.00942 5.20079,0.4240969 8.62086,1.38538332 10.74074,3.01580032 1.02697,0.7916478 2.18584,2.469187 2.47792,3.6001121 0.13189,0.5183408 0.0754,0.6220089 -0.32035,0.6220089 z m 141.44804,0 c -0.32976,0 -0.66894,-0.329853 -1.0364,-1.027257 -1.28134,-2.3749429 -4.76739,-2.1110604 -11.48503,-2.6388255 -3.87234,-0.30158 -49.36974,-0.3204288 -53.43992,-0.018849 -6.84016,0.5089164 -10.49578,0.3298533 -11.70176,2.7801912 -0.46165,0.9424377 -1.3567,1.2628669 -1.3567,0.4900676 0,-0.7727989 1.29076,-2.7236448 2.43078,-3.6660826 2.06335,-1.705812 5.51171,-2.71422052 10.82554,-3.15716622 3.74983,-0.3110044 49.00227,-0.3110044 52.87459,0.00942 5.20078,0.4240969 8.62085,1.38538332 10.74075,3.01580032 1.02695,0.7916478 2.18584,2.469187 2.47791,3.6001121 0.1319,0.5183408 0.0754,0.6220089 -0.32034,0.6220089 z m 55.54093,96.3265595 c 0,-0.25447 0.33917,-0.50892 1.02695,-0.80108 2.37427,-0.98956 2.11048,-3.666083 2.63808,-8.830638 0.3015,-2.978103 0.32035,-37.961388 0.0194,-41.090281 -0.50876,-5.258803 -0.32034,-8.067266 -2.77939,-9.000281 -0.94218,-0.358125 -1.26252,-1.046106 -0.48993,-1.046106 0.782,0 2.72287,0.98956 3.66504,1.866027 1.70533,1.583295 2.71346,4.240969 3.15626,8.321724 0.32035,2.883862 0.31093,37.678657 -0.01,40.65676 -0.42399,4.005362 -1.38499,6.634755 -3.01496,8.265185 -0.782,0.79164 -2.46849,1.67753 -3.59909,1.90372 -0.51818,0.10367 -0.62183,0.0565 -0.62183,-0.24503 z m 1.3473,55.95252 c -0.77258,0 -0.45224,0.68799 0.48992,1.0461 2.44966,0.92359 2.27064,3.73206 2.77942,8.99087 0.21669,2.27128 0.27323,15.67274 0.16958,27.09509 h 3.58025 c 0.10368,-11.32811 0.047,-24.84266 -0.18842,-26.9443 -0.44283,-4.08075 -1.45095,-6.73844 -3.15628,-8.32174 -0.94217,-0.87647 -2.89247,-1.86602 -3.66505,-1.86602 z m 0,147.51976 c -0.77258,0 -0.45224,-0.68798 0.48992,-1.0461 2.44966,-0.92357 2.27064,-3.73204 2.77942,-8.99086 0.21669,-2.27126 0.27323,-18.49063 0.16958,-29.92238 h 3.58025 c 0.10368,11.32809 0.047,27.66996 -0.18842,29.7716 -0.44283,4.08075 -1.45095,6.73843 -3.15628,8.32173 -0.94217,0.87645 -2.89247,1.86601 -3.66505,1.86601 z"/>
	<path aria-label="⨀" d="m 212.17374,108.57954 q 1.23342,0 1.99621,0.81144 0.76278,0.81143 0.76278,2.07798 0,1.31488 -0.76278,2.1266 -0.76279,0.79543 -1.99621,0.79543 -1.20097,0 -1.96375,-0.79543 -0.74658,-0.81143 -0.74658,-2.1266 0,-1.28247 0.74658,-2.07798 0.76278,-0.81144 1.96375,-0.81144 z m -0.0156,-9.837743 q 3.48929,0 6.42682,1.607143 2.9375,1.59093 4.5929,4.52926 1.67161,2.92213 1.67161,6.59104 0,3.57146 -1.62293,6.49359 -1.62294,2.92212 -4.57669,4.57788 -2.93749,1.65586 -6.49171,1.65586 -3.538,0 -6.49175,-1.63956 -2.9375,-1.63965 -4.56043,-4.56178 -1.62294,-2.92211 -1.62294,-6.52599 0,-3.65271 1.65539,-6.57483 1.65539,-2.93833 4.57669,-4.54547 2.92125,-1.607143 6.44304,-1.607143 z m -0.0155,2.256483 q -2.77522,0 -5.07977,1.33119 -2.28833,1.31498 -3.58669,3.73386 -1.29836,2.40264 -1.29836,5.40591 0,2.98706 1.26589,5.38962 1.28212,2.38642 3.60292,3.73384 2.32079,1.3474 5.09601,1.3474 2.87258,0 5.17718,-1.3474 2.32077,-1.34742 3.57045,-3.75006 1.26589,-2.40265 1.26589,-5.3734 0,-3.01958 -1.29836,-5.42212 -1.28214,-2.41887 -3.58669,-3.73385 -2.28835,-1.31499 -5.12847,-1.31499 z" style="stroke-width:9.42303"/>
	<path aria-label="Bedroom" d="m 436.42082,51.506355 q 0,1.610437 -0.64915,2.64938 -0.64915,1.025936 -1.68781,1.610437 -1.02574,0.571116 -2.19423,0.792589 -1.16846,0.22053 -2.22012,0.22053 h -7.43956 v -1.142798 l 1.40223,-0.103668 q 0.28548,-0.02828 0.4155,-0.20828 0.14317,-0.1819 0.14317,-0.376975 V 40.76558 q 0,-0.195084 -0.14317,-0.376975 -0.12995,-0.195085 -0.4155,-0.207337 l -1.40223,-0.103667 v -1.142894 h 7.11499 q 3.18084,0 4.58309,1.142894 1.40222,1.1428 1.40222,3.142841 0,1.324691 -0.63596,2.155919 -0.62278,0.831231 -1.51906,1.285676 -0.88281,0.442001 -1.67489,0.649338 1.19448,0 2.32405,0.402421 1.12955,0.389227 1.85664,1.311684 0.73959,0.909454 0.73959,2.480591 z m -3.96003,-8.104024 q 0,-1.558414 -1.02565,-2.402555 -1.01274,-0.844426 -3.06413,-0.844426 -0.41549,0 -0.896,0.0377 -0.48051,0.03769 -0.62371,0.03769 v 6.727404 q 0,0 0.36367,0.0095 0.37688,0.0095 0.59734,0.0095 2.59663,0 3.62237,-0.934897 1.02565,-0.934898 1.02565,-2.649381 z m 1.06465,8.324835 q 0,-1.818243 -1.09057,-2.662385 -1.07764,-0.844425 -3.19395,-0.844425 -0.42869,0 -0.96073,0.0377 -0.53234,0.0377 -0.94783,0.0754 -0.4023,0.0377 -0.48051,0.0377 v 7.026062 q 0,0 0.29868,0.02828 0.31186,0.0095 0.70097,0.0377 0.4023,0.0095 0.64916,0.0095 2.79147,0 3.90802,-0.9349 1.11656,-0.934897 1.11656,-2.818172 z m 16.06061,3.727247 q -1.11665,0.687981 -2.41497,1.168907 -1.2854,0.48064 -2.63563,0.48064 -1.60998,0 -3.02511,-0.714366 -1.40225,-0.727562 -2.27216,-2.194843 -0.86961,-1.467562 -0.86961,-3.688325 0,-2.077979 0.80462,-3.623387 0.80461,-1.545504 2.22012,-2.389647 1.41523,-0.856676 3.21995,-0.856676 2.4798,0 3.7262,1.545505 1.24648,1.532404 1.24648,3.909041 0,0.130056 0,0.350587 0,0.207338 -0.0282,0.389229 h -8.62105 q 0,1.013023 0.20824,2.026049 0.22047,1.000023 0.72735,1.818152 0.50593,0.818037 1.36332,1.311683 0.85642,0.493839 2.14219,0.493839 1.14258,0 2.22023,-0.519283 1.09056,-0.532477 1.98648,-1.129887 z m -2.66163,-6.818254 v -0.58431 q 0,-1.311686 -0.63597,-2.207756 -0.62276,-0.896258 -1.94746,-0.896258 -1.31131,0 -2.23314,0.987015 -0.92143,0.987017 -1.02573,2.701309 z m 17.87824,8.142944 h -4.18068 v -1.415542 q -0.9092,0.701176 -1.93456,1.220742 -1.02574,0.519281 -2.18122,0.519281 -1.33731,0 -2.31104,-0.558864 -0.96083,-0.571118 -1.58398,-1.506488 -0.61053,-0.934898 -0.90921,-2.064973 -0.29866,-1.129891 -0.29866,-2.259777 0,-1.805242 0.74055,-3.415583 0.73959,-1.623444 2.24614,-2.63647 1.50604,-1.025936 3.7912,-1.025936 0.63595,0 1.37621,0.130056 0.7528,0.116868 1.06465,0.195082 v -4.87014 h -2.01248 v -0.883063 l 3.42763,-1.026033 h 1.06465 v 17.896326 q 0,0.545671 0.55872,0.584311 l 1.14256,0.0754 z m -4.18068,-2.415561 v -9.052019 q -0.3373,-0.116857 -1.01274,-0.246919 -0.66236,-0.14325 -1.2464,-0.14325 -1.97348,0 -3.15496,1.467563 -1.18156,1.454559 -1.18156,3.870214 0,2.168831 1.01272,3.59738 1.01276,1.42864 2.84338,1.42864 0.80461,0 1.50606,-0.298753 0.71416,-0.311945 1.2335,-0.622951 z m 14.99586,-7.688407 h -1.03865 q -0.24685,-0.298753 -0.59733,-0.50609 -0.33729,-0.220528 -0.831,-0.220528 -0.63598,0 -1.31131,0.442001 -0.66235,0.442004 -1.35024,1.20783 v 7.480597 q 0,0.558868 0.55872,0.584314 l 1.75281,0.0754 v 1.038944 h -6.64757 v -1.012931 l 1.3113,-0.103668 q 0.23366,-0.02828 0.38913,-0.181901 0.16862,-0.155512 0.16862,-0.402422 v -9.233815 h -1.92154 v -0.86987 l 3.29777,-1.013025 h 1.09067 v 2.363632 q 1.12946,-1.311685 1.96046,-2.00004 0.84418,-0.687981 1.54506,-0.687981 0.4155,0 0.89601,0.130058 0.48052,0.130056 0.72736,0.272365 z m 13.82738,3.714337 q 0,1.883083 -0.77917,3.415582 -0.77917,1.51949 -2.20721,2.415656 -1.41524,0.883063 -3.36271,0.883063 -1.93455,0 -3.3497,-0.883063 -1.41524,-0.883064 -2.18121,-2.402649 -0.766,-1.519496 -0.766,-3.428589 0,-1.896185 0.766,-3.428588 0.77917,-1.5325 2.20714,-2.428663 1.44111,-0.896259 3.40169,-0.896259 1.98647,0 3.38869,0.909454 1.40215,0.909451 2.14222,2.441571 0.74056,1.532498 0.74056,3.402672 z m -2.76545,-0.02828 q 0,-1.454559 -0.38911,-2.714316 -0.37687,-1.259757 -1.16859,-2.038964 -0.77916,-0.779396 -1.97347,-0.779396 -1.23339,0 -2.02538,0.779396 -0.77919,0.779396 -1.15556,2.038964 -0.37686,1.259757 -0.37686,2.714316 0,1.441552 0.37686,2.714315 0.38911,1.259754 1.16857,2.038963 0.79237,0.779396 1.98646,0.779396 1.22038,0 1.99938,-0.779396 0.79237,-0.779398 1.16859,-2.038963 0.38911,-1.259758 0.38911,-2.714315 z m 17.22899,0.02828 q 0,1.883083 -0.77917,3.415582 -0.77918,1.51949 -2.20723,2.415656 -1.41514,0.883063 -3.36269,0.883063 -1.93446,0 -3.34971,-0.883063 -1.41523,-0.883064 -2.1812,-2.402649 -0.76601,-1.519496 -0.76601,-3.428589 0,-1.896185 0.76601,-3.428588 0.77916,-1.5325 2.20723,-2.428663 1.44112,-0.896259 3.40159,-0.896259 1.98646,0 3.38869,0.909454 1.40224,0.909451 2.14223,2.441571 0.74055,1.532498 0.74055,3.402672 z m -2.76546,-0.02828 q 0,-1.454559 -0.3891,-2.714316 -0.37688,-1.259757 -1.16849,-2.038964 -0.77917,-0.779396 -1.97357,-0.779396 -1.23339,0 -2.02538,0.779396 -0.77918,0.779396 -1.15547,2.038964 -0.37687,1.259757 -0.37687,2.714316 0,1.441552 0.37687,2.714315 0.38911,1.259754 1.16847,2.038963 0.79237,0.779396 1.98647,0.779396 1.22039,0 1.99948,-0.779396 0.79238,-0.779398 1.16849,-2.038963 0.3891,-1.259758 0.3891,-2.714315 z m 25.69429,6.415642 h -5.95939 v -1.03894 l 1.11657,-0.0754 q 0.55869,-0.03769 0.55869,-0.584314 v -6.779329 q 0,-1.233746 -0.51912,-1.974032 -0.50597,-0.740756 -1.84365,-0.740756 -0.66235,0 -1.45415,0.208279 -0.77917,0.208278 -1.38923,0.532477 v 8.753361 q 0,0.545674 0.55873,0.584314 l 1.11655,0.0754 v 1.038942 h -5.8296 v -1.03894 l 1.11659,-0.0754 q 0.55869,-0.03769 0.55869,-0.584314 V 48.13006 q 0,-1.129888 -0.53231,-1.831156 -0.53234,-0.714367 -1.80475,-0.714367 -0.75278,0 -1.57097,0.260113 -0.81781,0.246919 -1.27238,0.506088 v 8.727351 q 0,0.545671 0.55775,0.584311 l 1.11665,0.0754 v 1.038944 h -6.01142 v -1.038943 l 1.29842,-0.0754 q 0.5587,-0.0377 0.5587,-0.584311 v -9.233812 h -1.83065 v -0.869866 l 3.21989,-1.013027 h 1.09066 v 1.324692 q 0.59733,-0.363781 1.3373,-0.739814 0.75278,-0.376976 1.53207,-0.636146 0.77917,-0.272362 1.46705,-0.272362 1.15556,0 1.86963,0.597503 0.71418,0.584311 1.05167,1.246752 0.53231,-0.337394 1.35033,-0.766204 0.81779,-0.442002 1.68778,-0.753006 0.88281,-0.324199 1.58398,-0.324199 1.40223,0 2.14231,0.64934 0.74055,0.636144 1.01275,1.584426 0.27227,0.934898 0.27227,1.844161 v 7.363737 q 0,0.246919 0.15541,0.415615 0.16862,0.155493 0.40231,0.168687 l 1.28539,0.0754 z"/>
	<path aria-label="Door" d="m 343.09897,265.54326 q 0,1.74027 -0.50632,3.35066 -0.50633,1.61042 -1.60994,2.88315 -1.09062,1.25977 -2.85637,2.00003 -1.75277,0.72726 -4.25859,0.72726 h -7.38755 v -1.14285 l 1.4022,-0.10371 q 0.28565,-0.0265 0.4284,-0.2078 0.15579,-0.18187 0.15579,-0.37659 v -14.18195 q 0,-0.19481 -0.15579,-0.37661 -0.14278,-0.19482 -0.4284,-0.20782 l -1.4022,-0.10371 v -1.14287 h 6.85524 q 2.79143,0 4.99865,0.94807 2.20717,0.93509 3.47957,2.89613 1.28535,1.96105 1.28535,5.039 z m -3.01215,0.052 q 0,-2.79222 -0.85692,-4.46757 -0.84389,-1.68833 -2.40193,-2.44159 -1.54502,-0.75329 -3.64834,-0.75329 h -2.02542 v 15.29887 l 2.15525,-0.0265 q 2.05139,-0.0265 3.57046,-0.77923 1.51905,-0.7662 2.36299,-2.42859 0.84389,-1.66234 0.84389,-4.40264 z m 17.59256,2.51951 q 0,1.88315 -0.77897,3.41563 -0.77899,1.51948 -2.20717,2.4156 -1.41519,0.88316 -3.36272,0.88316 -1.93454,0 -3.34974,-0.88316 -1.41521,-0.88316 -2.18121,-2.40263 -0.76599,-1.5195 -0.76599,-3.4286 0,-1.89611 0.76599,-3.4286 0.77897,-1.53248 2.20716,-2.42861 1.44117,-0.89606 3.40169,-0.89606 1.98647,0 3.38868,0.90907 1.40219,0.90906 2.14227,2.44159 0.74006,1.53249 0.74006,3.40263 z m -2.76546,-0.0265 q 0,-1.45456 -0.38951,-2.71432 -0.37648,-1.25976 -1.16849,-2.03899 -0.77897,-0.77919 -1.97349,-0.77919 -1.23341,0 -2.02542,0.77919 -0.779,0.77922 -1.15553,2.03899 -0.37648,1.25976 -0.37648,2.71432 0,1.44155 0.37648,2.7143 0.38949,1.25976 1.16851,2.03899 0.792,0.77921 1.98649,0.77921 1.22045,0 1.99944,-0.77921 0.79198,-0.77921 1.16849,-2.03899 0.38951,-1.25976 0.38951,-2.7143 z m 17.22903,0.0265 q 0,1.88315 -0.77898,3.41563 -0.77898,1.51948 -2.20717,2.4156 -1.41521,0.88316 -3.36274,0.88316 -1.93451,0 -3.3497,-0.88316 -1.41522,-0.88316 -2.18124,-2.40263 -0.76597,-1.5195 -0.76597,-3.4286 0,-1.89611 0.76597,-3.4286 0.779,-1.53248 2.2072,-2.42861 1.44116,-0.89606 3.40168,-0.89606 1.98644,0 3.38867,0.90907 1.40219,0.90906 2.14224,2.44159 0.7401,1.53249 0.7401,3.40263 z m -2.76546,-0.0265 q 0,-1.45456 -0.38949,-2.71432 -0.37649,-1.25976 -1.1685,-2.03899 -0.77898,-0.77919 -1.9735,-0.77919 -1.2334,0 -2.02539,0.77919 -0.77901,0.77922 -1.15556,2.03899 -0.37648,1.25976 -0.37648,2.71432 0,1.44155 0.37648,2.7143 0.3895,1.25976 1.16854,2.03899 0.79198,0.77921 1.98646,0.77921 1.22045,0 1.99945,-0.77921 0.79198,-0.77921 1.1685,-2.03899 0.38949,-1.25976 0.38949,-2.7143 z m 13.80141,-3.68836 h -1.03867 q -0.24666,-0.29865 -0.59724,-0.50646 -0.33758,-0.22082 -0.83091,-0.22082 -0.63616,0 -1.31132,0.44155 -0.66218,0.44152 -1.35028,1.2078 v 7.48056 q 0,0.5585 0.55834,0.58443 l 1.75276,0.0783 v 1.03898 h -6.64753 v -1.01302 l 1.31135,-0.10371 q 0.23375,-0.0265 0.3895,-0.18188 0.1688,-0.15584 0.1688,-0.40261 v -9.23386 h -1.92157 v -0.87014 l 3.2978,-1.013 h 1.09063 v 2.36365 q 1.12957,-1.3117 1.96049,-2.00001 0.84389,-0.68837 1.54504,-0.68837 0.4155,0 0.8958,0.12982 0.48042,0.12979 0.7271,0.27273 z"/>
	<path aria-label="Door" d="m 91.710706,195.53857 q 0,1.7402 -0.506323,3.35061 -0.506322,1.61046 -1.609952,2.8832 -1.090609,1.25976 -2.856361,1.99996 -1.752764,0.72756 -4.258568,0.72756 h -7.387587 v -1.14279 l 1.402214,-0.10361 q 0.285664,-0.0283 0.428404,-0.20828 0.155838,-0.18188 0.155838,-0.37696 v -14.18201 q 0,-0.19508 -0.155838,-0.37697 -0.142841,-0.19509 -0.428404,-0.20827 l -1.402214,-0.10361 v -1.14289 h 6.85523 q 2.791445,0 4.99863,0.94809 2.207184,0.93489 3.479566,2.89613 1.285365,1.96101 1.285365,5.03902 z m -3.012165,0.0565 q 0,-2.79227 -0.856905,-4.46755 -0.843901,-1.68838 -2.40193,-2.44167 -1.545038,-0.753 -3.648357,-0.753 h -2.025421 v 15.29888 l 2.155263,-0.0282 q 2.051375,-0.0283 3.570446,-0.77939 1.519063,-0.76622 2.362985,-2.42866 0.843899,-1.66228 0.843899,-4.40261 z m 17.592579,2.5195 q 0,1.88308 -0.77899,3.4156 -0.77899,1.51948 -2.20718,2.41565 -1.4152,0.88305 -3.36272,0.88305 -1.93453,0 -3.34974,-0.88305 -1.415189,-0.88308 -2.181213,-2.40266 -0.765985,-1.51948 -0.765985,-3.42859 0,-1.89608 0.765985,-3.42861 0.778986,-1.53246 2.207193,-2.42864 1.44116,-0.89626 3.40166,-0.89626 1.98648,0 3.38868,0.90945 1.40221,0.90947 2.14228,2.44157 0.74007,1.53252 0.74007,3.40269 z m -2.76547,-0.0282 q 0,-1.45456 -0.38949,-2.7143 -0.3765,-1.25976 -1.16851,-2.03898 -0.77899,-0.7794 -1.97349,-0.7794 -1.23342,0 -2.02543,0.7794 -0.77898,0.77939 -1.15552,2.03898 -0.37649,1.25974 -0.37649,2.7143 0,1.44167 0.37649,2.71433 0.38949,1.25974 1.16852,2.03895 0.79197,0.7794 1.98646,0.7794 1.22045,0 1.99946,-0.7794 0.79198,-0.77939 1.16851,-2.03895 0.38949,-1.25976 0.38949,-2.71433 z m 17.22904,0.0282 q 0,1.88308 -0.77899,3.4156 -0.77898,1.51948 -2.20717,2.41565 -1.4152,0.88305 -3.36272,0.88305 -1.93453,0 -3.34973,-0.88305 -1.4152,-0.88308 -2.18122,-2.40266 -0.76607,-1.51948 -0.76607,-3.42859 0,-1.89608 0.76607,-3.42861 0.77899,-1.53246 2.20718,-2.42864 1.44116,-0.89626 3.40168,-0.89626 1.98647,0 3.38868,0.90945 1.4022,0.90947 2.14226,2.44157 0.74007,1.53252 0.74007,3.40269 z m -2.76546,-0.0284 q 0,-1.45457 -0.38949,-2.7143 -0.3765,-1.25977 -1.16852,-2.03898 -0.77899,-0.7794 -1.97348,-0.7794 -1.23344,0 -2.02543,0.7794 -0.779,0.77937 -1.15554,2.03898 -0.37649,1.25973 -0.37649,2.7143 0,1.44166 0.37649,2.71432 0.38949,1.25975 1.16853,2.03896 0.79198,0.7794 1.98646,0.7794 1.22044,0 1.99946,-0.7794 0.79197,-0.77941 1.16852,-2.03896 0.38949,-1.25975 0.38949,-2.71432 z m 13.8014,-3.68833 h -1.03866 q -0.24667,-0.29876 -0.59726,-0.50611 -0.33758,-0.22053 -0.8309,-0.22053 -0.63615,0 -1.31133,0.44202 -0.66215,0.442 -1.35027,1.20781 v 7.48063 q 0,0.55885 0.55834,0.5843 l 1.75275,0.0754 v 1.03893 h -6.64752 v -1.01293 l 1.31132,-0.1036 q 0.23375,-0.0282 0.3895,-0.18189 0.16884,-0.15546 0.16884,-0.40243 v -9.2338 h -1.92156 v -0.86989 l 3.2978,-1.01302 h 1.09062 v 2.36362 q 1.12956,-1.31168 1.96049,-1.99993 0.84389,-0.68798 1.54503,-0.68798 0.41551,0 0.89582,0.13 0.48042,0.13 0.72707,0.27235 z"/>
	<path aria-label="Hall" d="m 114.93929,271.80871 h -6.72542 v -1.14289 l 1.51906,-0.1036 q 0.27266,-0.0282 0.41549,-0.20829 0.14285,-0.18188 0.14285,-0.37697 v -6.87018 h -8.75086 v 6.87018 q 0,0.19509 0.12983,0.37697 0.14284,0.18189 0.4285,0.20829 l 1.51907,0.1036 v 1.14289 h -6.72543 v -1.14289 l 1.37624,-0.1036 q 0.28566,-0.0282 0.4285,-0.20829 0.15583,-0.18188 0.15583,-0.37697 v -14.1819 q 0,-0.19507 -0.15583,-0.36379 -0.14285,-0.18188 -0.4285,-0.19509 l -1.37624,-0.1036 v -1.1689 h 6.72543 v 1.1689 l -1.51908,0.1036 q -0.28566,0.01 -0.42849,0.19509 -0.12983,0.16867 -0.12983,0.36379 v 5.98703 h 8.75086 v -5.98703 q 0,-0.19507 -0.14285,-0.36379 -0.14283,-0.18188 -0.41549,-0.19509 l -1.51906,-0.1036 v -1.1689 h 6.72542 v 1.1689 l -1.37625,0.1036 q -0.28567,0.01 -0.44141,0.19509 -0.14283,0.16867 -0.14283,0.36379 v 14.1819 q 0,0.19509 0.14283,0.37697 0.15584,0.18189 0.44141,0.20829 l 1.37625,0.1036 z m 13.94424,0 h -3.93399 l -0.35058,-1.57152 q -0.50632,0.40243 -1.2594,0.84442 -0.75308,0.442 -1.58398,0.74075 -0.8309,0.31194 -1.59696,0.31194 -1.44117,0 -2.45387,-0.96109 -0.99974,-0.96099 -0.99974,-2.63637 0,-0.74075 0.25968,-1.37661 0.27265,-0.63616 1.06463,-1.20784 0.805,-0.58431 2.37597,-1.12987 1.58397,-0.55792 4.19366,-1.1299 0,-0.0376 0,-0.41562 0,-0.38922 0,-0.72754 0,-2.62348 -2.47984,-2.62348 -0.68816,0 -1.19449,0.12999 -0.49341,0.13001 -0.68816,0.20734 v 2.31171 h -1.93444 q -0.3635,0 -0.67517,-0.12998 -0.31156,-0.14322 -0.31156,-0.63616 0,-1.09096 0.83088,-1.77924 0.83101,-0.70116 2.10333,-1.02603 1.28535,-0.33738 2.59669,-0.33738 1.64889,0 2.55774,0.51928 0.90883,0.50609 1.27237,1.41565 0.3635,0.89625 0.3635,2.05195 v 7.45459 q 0,0.24692 0.15585,0.41563 0.16883,0.15545 0.40248,0.16864 l 1.28538,0.0754 z m -4.28455,-2.50651 v -4.59748 q -1.79171,0.44197 -2.85636,0.89623 -1.05166,0.44202 -1.57098,0.89627 -0.51935,0.44199 -0.68818,0.90944 -0.15583,0.45426 -0.15583,0.9481 0,0.81803 0.51932,1.51949 0.53233,0.68799 1.48011,0.68799 0.77899,0 1.7268,-0.42882 0.94779,-0.42881 1.54504,-0.83122 z m 11.90584,2.50651 h -6.46578 v -1.03902 l 1.41521,-0.0754 q 0.18176,-0.01 0.37648,-0.1951 0.20776,-0.19507 0.20776,-0.36377 v -16.01316 h -2.02541 v -0.88307 l 3.40165,-1.02594 h 1.09062 v 17.92226 q 0,0.16867 0.19473,0.36378 0.19475,0.18188 0.36351,0.19507 l 1.44116,0.0754 z m 7.89393,0 H 137.933 v -1.03902 l 1.41519,-0.0754 q 0.18174,-0.01 0.3765,-0.1951 0.20775,-0.19507 0.20775,-0.36377 v -16.01316 h -2.02543 v -0.88307 l 3.40168,-1.02594 h 1.09061 v 17.92226 q 0,0.16867 0.19474,0.36378 0.19476,0.18188 0.3635,0.19507 l 1.44116,0.0754 z"/>
	<path aria-label="Library" d="M 84.752714,56.779103 H 71.821191 v -1.142798 l 1.545026,-0.103678 q 0.285666,-0.02828 0.415498,-0.20828 0.14284,-0.181901 0.14284,-0.376975 V 40.765391 q 0,-0.195084 -0.14284,-0.376974 -0.129825,-0.195084 -0.415498,-0.207338 l -1.545026,-0.103677 v -1.142889 h 6.790353 v 1.142894 l -1.415206,0.103677 q -0.285666,0.0095 -0.441408,0.207337 -0.142841,0.181902 -0.142841,0.376975 v 14.714468 h 5.582886 q 0.181752,0 0.376493,-0.143251 0.194746,-0.14325 0.20775,-0.311947 l 0.428497,-3.194865 h 1.545026 z m 6.258026,-17.20797 q 0,0.675729 -0.467411,1.168907 -0.467412,0.480645 -1.14255,0.480645 -0.67516,0 -1.168509,-0.480645 -0.480412,-0.493838 -0.480412,-1.168907 0,-0.687977 0.480412,-1.155804 0.493322,-0.467451 1.168509,-0.467451 0.675158,0 1.14255,0.467451 0.467411,0.467449 0.467411,1.155804 z m 1.363264,17.20797 h -6.245045 v -1.038942 l 1.29835,-0.0754 q 0.558236,-0.0377 0.558236,-0.584314 V 45.586802 H 86.15488 v -0.934899 l 3.245859,-1.013024 h 1.05166 v 11.441664 q 0,0.246918 0.155837,0.415613 0.168737,0.155494 0.402496,0.168687 l 1.363264,0.0754 z m 14.762176,-7.02606 q 0,2.00004 -0.79196,3.597472 -0.792,1.584425 -2.47985,2.506509 -1.68786,0.921702 -4.36244,0.921702 H 95.671799 V 39.090679 h -2.01244 v -0.883063 l 3.427631,-1.026033 h 1.06464 v 7.441677 q 0.45441,-0.220529 1.46713,-0.597505 1.0257,-0.389228 2.19422,-0.389228 1.75276,0 2.93425,0.844426 1.1815,0.844422 1.77874,2.246771 0.61024,1.389623 0.61024,3.025978 z m -2.71353,0.532476 q 0,-2.519511 -1.06465,-3.79218 -1.06464,-1.285768 -2.99917,-1.285768 -0.44141,0 -1.12957,0.14325 -0.67516,0.143251 -1.07763,0.28556 v 9.870148 q 0.32459,0.0095 0.64916,0.02828 0.32458,0 0.64915,0 2.363,0 3.66134,-1.16881 1.31133,-1.168905 1.31133,-4.078021 z m 13.74948,-3.610384 h -1.03868 q -0.24665,-0.298753 -0.59722,-0.50609 -0.3376,-0.220528 -0.83093,-0.220528 -0.63614,0 -1.3113,0.442001 -0.66217,0.442004 -1.35028,1.20783 v 7.480597 q 0,0.558868 0.55832,0.584314 l 1.75277,0.0754 v 1.038944 h -6.64752 v -1.012931 l 1.31132,-0.103668 q 0.23376,-0.02828 0.38949,-0.181901 0.16884,-0.155512 0.16884,-0.402422 v -9.233815 h -1.92157 v -0.86987 l 3.29782,-1.013025 h 1.09061 v 2.363632 q 1.12956,-1.311685 1.96049,-2.00004 0.84391,-0.687981 1.54504,-0.687981 0.41549,0 0.8958,0.130058 0.48042,0.130056 0.72708,0.272365 z m 13.35999,10.103968 h -3.934 l -0.35058,-1.57142 q -0.50632,0.402421 -1.2594,0.844425 -0.75308,0.442001 -1.58397,0.740755 -0.83091,0.311947 -1.59698,0.311947 -1.44115,0 -2.45386,-0.961003 -0.99974,-0.961098 -0.99974,-2.636375 0,-0.740757 0.25966,-1.376619 0.27267,-0.636146 1.06464,-1.207829 0.805,-0.58431 2.37598,-1.129888 1.58398,-0.558864 4.19366,-1.129889 0,-0.0377 0,-0.415615 0,-0.389226 0,-0.727562 0,-2.623368 -2.47984,-2.623368 -0.68816,0 -1.19448,0.130056 -0.49342,0.130056 -0.68816,0.208279 v 2.311706 h -1.93452 q -0.3636,0 -0.67517,-0.130057 -0.31157,-0.143251 -0.31157,-0.636147 0,-1.090872 0.83089,-1.779227 0.831,-0.701173 2.10332,-1.025937 1.28536,-0.337392 2.59671,-0.337392 1.64888,0 2.55773,0.51928 0.90882,0.50609 1.27237,1.415637 0.36349,0.896257 0.36349,2.051969 v 7.454588 q 0,0.246918 0.15584,0.415614 0.16885,0.155493 0.4025,0.168708 l 1.28537,0.0754 z m -4.28455,-2.506506 v -4.597399 q -1.79172,0.44106 -2.85636,0.896257 -1.05167,0.441061 -1.57099,0.896259 -0.51933,0.44106 -0.68817,0.909451 -0.15584,0.454256 -0.15584,0.947999 0,0.818035 0.51932,1.519492 0.53233,0.687979 1.48012,0.687979 0.779,0 1.72679,-0.42881 0.9478,-0.428807 1.54504,-0.831228 z m 14.85307,-7.597462 h -1.03866 q -0.24667,-0.298753 -0.59726,-0.50609 -0.33758,-0.220528 -0.8309,-0.220528 -0.63615,0 -1.31133,0.442001 -0.66215,0.442004 -1.35027,1.20783 v 7.480597 q 0,0.558868 0.55825,0.584314 l 1.75274,0.0754 v 1.038944 h -6.64752 v -1.012931 l 1.31132,-0.103668 q 0.23377,-0.02828 0.38951,-0.181901 0.16883,-0.155512 0.16883,-0.402422 v -9.233815 h -1.92156 v -0.86987 l 3.2978,-1.013025 h 1.09061 v 2.363632 q 1.12956,-1.311685 1.9605,-2.00004 0.8439,-0.687981 1.54504,-0.687981 0.41549,0 0.89582,0.130058 0.48041,0.130056 0.72706,0.272365 z m 14.10004,-1.675371 -1.38922,0.155512 -5.10252,12.441685 q -0.16883,0.428807 -0.53232,1.22074 -0.35059,0.804841 -0.8439,1.636448 -0.48042,0.844424 -1.03868,1.402535 -0.4804,0.480644 -1.06464,0.740758 -0.57124,0.272364 -1.24641,0.272364 -0.9478,0 -1.45414,-0.467449 -0.49342,-0.454256 -0.49342,-1.051949 0,-0.883066 0.8569,-1.597432 l 2.49283,1.142895 q 0.44139,-0.442005 0.88291,-1.194825 0.4414,-0.753005 0.79198,-1.558415 0.36358,-0.80484 0.55832,-1.389622 L 144.10013,45.155465 142.633,44.999953 v -1.038946 h 5.88151 v 1.038946 l -1.27238,0.0754 q -0.22075,0.0095 -0.36348,0.195085 -0.12984,0.168686 -0.0386,0.389225 l 3.09004,7.844287 3.155,-7.844287 q 0.0905,-0.208279 -0.0264,-0.389225 -0.11686,-0.181901 -0.33758,-0.195085 l -1.25939,-0.0754 v -1.038946 h 4.73895 z"/>
	<path aria-label="1" d="m 127.57945,111.63615 h -8.98456 v -1.19482 l 2.68758,-0.10371 q 0.24666,0 0.4155,-0.16871 0.16884,-0.18188 0.16884,-0.41561 V 95.623359 l -4.11577,0.714368 v -1.194821 l 5.73869,-1.779231 h 1.01271 v 16.389755 q 0,0.23372 0.16883,0.41561 0.16873,0.1687 0.4155,0.1687 l 2.49284,0.10371 z"/>
	<path aria-label="2" d="m 217.95235,91.688126 h -12.4771 v -1.779228 q 2.49282,-2.026052 4.25857,-3.545545 1.76578,-1.532404 2.86935,-2.766242 1.11658,-1.233746 1.63591,-2.363635 0.51934,-1.129887 0.51934,-2.363632 0,-1.922102 -1.12955,-2.96114 -1.1166,-1.051948 -2.67462,-1.051948 -0.74007,0 -1.31132,0.246917 -0.55824,0.233724 -0.89582,0.44106 v 2.948041 q -0.16882,0.116857 -0.50634,0.285559 -0.32457,0.168686 -0.79198,0.168686 -0.62323,0 -1.11656,-0.389224 -0.48041,-0.389228 -0.48041,-1.181819 0,-1.116881 0.80499,-2.012952 0.81799,-0.896257 2.15523,-1.415634 1.3373,-0.532478 2.88233,-0.532478 1.73979,0 3.07708,0.662534 1.33731,0.649338 2.09036,1.818245 0.76596,1.155805 0.76596,2.701309 0,1.740211 -1.22042,3.454598 -1.22046,1.714294 -3.33676,3.532445 -2.10333,1.818247 -4.77791,3.870216 h 7.88095 l 0.46741,-2.28579 h 1.31132 z"/>
	<path aria-label="3" d="m 290.8477,111.5451 q 0,1.61045 -0.94783,2.8572 -0.94773,1.23383 -2.5317,1.94811 -1.57097,0.70116 -3.49255,0.70116 -1.79172,0 -3.0252,-0.50608 -1.2204,-0.51929 -1.85663,-1.24675 -0.62281,-0.74076 -0.62281,-1.38963 0,-0.53247 0.38913,-0.97409 0.38911,-0.45427 1.18149,-0.45427 0.1554,0 0.44186,0.0377 0.29869,0.0283 0.46733,0.14325 l 0.79238,2.36363 q 0.51912,0.29875 1.09064,0.49384 0.58414,0.19508 1.22039,0.19508 1.24651,0 2.18122,-0.59751 0.93463,-0.59751 1.45415,-1.54541 0.51913,-0.9611 0.51913,-2.02605 0,-1.29868 -0.63597,-2.02595 -0.62276,-0.72756 -1.54497,-1.02594 -0.92144,-0.29875 -1.80473,-0.29875 -0.51911,0 -0.9608,0.0376 -0.44188,0.0376 -0.66236,0.0659 v -1.64945 q 0.0565,0.01 0.26005,0.0283 0.22047,0 0.42868,0 1.11655,0 2.09031,-0.35059 0.97382,-0.36378 1.57106,-1.10388 0.59733,-0.75301 0.59733,-1.9221 0,-1.11689 -0.49368,-1.8961 -0.4937,-0.77939 -1.29832,-1.18182 -0.79238,-0.402423 -1.70091,-0.402423 -0.76599,0 -1.41513,0.246923 -0.64916,0.24692 -0.97383,0.49384 v 2.66238 q -0.0754,0.0565 -0.38911,0.19509 -0.31188,0.14325 -0.80461,0.14325 -0.48052,0 -1.01277,-0.31195 -0.53231,-0.31195 -0.53231,-1.16881 0,-1.01303 0.80462,-1.85717 0.80462,-0.844423 2.14221,-1.350703 1.33731,-0.51928 2.93429,-0.51928 1.54507,0 2.77848,0.57112 1.23338,0.55886 1.94756,1.584423 0.72734,1.02603 0.72734,2.44158 0,1.49358 -1.06466,2.61047 -1.06464,1.11688 -3.03813,1.67536 1.11658,0.0565 2.22014,0.51929 1.10356,0.46744 1.83065,1.40263 0.7396,0.92171 0.7396,2.38954 z"/>
	<path aria-label="4" d="m 469.27457,294.60429 h -2.25912 v 5.72738 h -2.49279 v -5.72738 h -8.08874 v -1.83115 l 8.72489,-11.14302 h 1.85664 v 11.16894 h 2.25912 z m -4.75191,-1.80523 v -7.76627 l -5.98542,7.76627 z"/>
	<path aria-label="5" d="m 567.59278,310.33677 q 0,1.80525 -0.85737,3.20787 -0.85644,1.38964 -2.53179,2.19476 -1.6619,0.79257 -4.11579,0.79257 -1.37622,0 -2.5317,-0.49381 -1.14257,-0.49385 -1.83072,-1.22084 -0.6878,-0.74076 -0.6878,-1.42856 0,-0.72755 0.48049,-1.10386 0.48052,-0.38924 1.19451,-0.38924 0.22045,0 0.42868,0.0565 0.20729,0.0376 0.28547,0.066 l 1.01266,2.44157 q 0.32409,0.29874 0.96081,0.53247 0.63597,0.23371 1.09057,0.23371 1.41523,0 2.38896,-0.66251 0.97373,-0.67573 1.48016,-1.66236 0.51912,-0.98702 0.51912,-1.92212 0,-2.24677 -1.31131,-3.31173 -1.2984,-1.07785 -3.23287,-1.07785 -0.64914,0 -1.38922,0.14322 -0.72736,0.12998 -1.37634,0.31193 -0.64915,0.16866 -1.06455,0.31195 -0.4023,0.12999 -0.4023,0.12999 v -9.22078 h 10.26984 v 2.25967 h -8.38727 v 5.05204 q 0.0376,0 0.55869,-0.16868 0.53235,-0.18188 1.33732,-0.35058 0.81782,-0.16866 1.70082,-0.16866 2.77844,0 4.38832,1.44162 1.62299,1.42856 1.62299,4.013 z"/>
</svg>
