<?xml version="1.0" encoding="utf-8"?>
<svg xmlns="http://www.w3.org/2000/svg" xmlns:svg="http://www.w3.org/2000/svg" version="1.1" viewBox="0 0 160 86">
	<title>A plan of the upper floor, showing a rectangle with stairs indicated in the mid-bottom, and a cross marked in the room at the mid-top.</title>
	<path d="m76.024 18.55c-1.0233-0.7856-2.5277 0.95139-3.7259 1.0233 0.07152-1.2049 1.799-2.7175 1.0177-3.7464-0.58999-0.77699-2.3267-0.77699-2.9167 0-0.78131 1.0289 0.94617 2.5416 1.0177 3.7464-1.1983-0.07192-2.7027-1.8089-3.7259-1.0233-0.77275 0.59323-0.77275 2.3395 0 2.9327 1.0233 0.7856 2.5277-0.95136 3.7259-1.0233-0.07152 1.2049-1.799 2.7175-1.0177 3.7464 0.58999 0.77697 2.3267 0.77697 2.9167 0 0.78131-1.029-0.94617-2.5416-1.0177-3.7464 1.1983 0.07191 2.7027 1.8089 3.7259 1.0233 0.77275-0.59323 0.77275-2.3395 0-2.9327z" stroke-width="2.3582"/>
	<path d="m68.432 80.761h-22.214m22.214-3.9996h-22.214m27.017-18.802v14.936m4.978-14.936v14.936m4.978-14.936v14.936m4.978-14.936v14.936h-41.951m22.214-14.936v26.778m30.053-18.019v18.019m0-83.58v16.431m-52.268-10.976v15.558m52.252 14.876h-52.318m52.318 20.696-52.318 0.21739m0.06672-6.7469v33.848m52.268-62.248v37.703m-52.268-33.12v18.876m112.51 15.139v-60.51h-157.73l-0.098775 84.126h157.85v-7.5311" fill="none" stroke="#000" stroke-width="1.8017"/>
</svg>
