<?xml version="1.0" encoding="utf-8"?>
<svg xmlns="http://www.w3.org/2000/svg" xmlns:svg="http://www.w3.org/2000/svg" version="1.1" viewBox="0 0 160 86">
	<title>A plan of the upper floor, showing a rectangle with stairs indicated in the mid-bottom, and a cross marked in the room at the mid-top.</title>
	<g>
		<path d="m32.341 7.8605c-0.43513-0.33222-1.0748 0.40233-1.5843 0.43274 0.03041-0.50954 0.76496-1.1492 0.43274-1.5843-0.25087-0.32858-0.98933-0.32858-1.2402 0-0.33222 0.43513 0.40232 1.0748 0.43274 1.5843-0.50954-0.030412-1.1492-0.76496-1.5843-0.43274-0.32858 0.25087-0.32858 0.98933 0 1.2402 0.43513 0.33222 1.0748-0.40232 1.5843-0.43274-0.03041 0.50954-0.76496 1.1492-0.43274 1.5843 0.25087 0.32857 0.98933 0.32857 1.2402 0 0.33222-0.43514-0.40232-1.0748-0.43274-1.5843 0.50954 0.030411 1.1492 0.76496 1.5843 0.43274 0.32858-0.25087 0.32858-0.98933 0-1.2402z"/>
		<path d="m29.112 34.17h-9.4457m9.4457-1.6914h-9.4457m11.488-7.951v6.3161m2.1167-6.3161v6.3161m2.1167-6.3161v6.3161m2.1167-6.3161v6.3161h-17.838m9.4457-6.3161v11.324m12.779-7.6202v7.6202m0-35.345v6.9484m-22.225-4.6416v6.5793m22.218 6.2907h-22.246m22.246 8.7521-22.246 0.09193m0.02837-2.8532v14.314m22.225-26.324v15.944m-22.225-14.006v7.9826m47.84 6.4022v-25.589h-67.067l-0.042 35.576h67.118v-3.1848" fill="none" stroke="#000" stroke-width=".76402"/>
	</g>
</svg>
