<?xml version="1.0" encoding="UTF-8"?>
<svg xmlns="http://www.w3.org/2000/svg" viewBox="0 0 70 38">
	<title>A plan of the upper floor, showing a rectangle with stairs indicated in the mid-bottom, and a cross marked in the room at the mid-top.</title>
	<path d="m 38.771436,41.908578 h -9.445715 m 9.445715,-1.691382 H 29.325721 M 40.813444,32.26624 v 6.316111 m 2.116668,-6.316111 v 6.316111 M 45.04678,32.26624 v 6.316111 m 2.116668,-6.316111 v 6.316111 H 29.325721 m 9.445715,-6.316111 v 11.324379 m 12.779187,-7.620211 v 7.620211 m 0,-35.3452043 V 15.193856 M 29.325721,8.2454144 v 6.9484416 m 22.217568,8.228399 H 29.297351 m 22.245938,8.752053 -22.245938,0.09193 m 0.02837,-2.853181 V 43.727277 M 51.550723,17.402813 V 33.347088 M 29.325721,17.402813 V 27.3231 m 47.840335,6.402209 V 8.1358761 H 10.099232 l -0.042,35.5763959 h 67.118394 v -3.184763" fill="none" stroke="#000" stroke-width=".794" transform="translate(-9.22 -7.403)"/>
	<path aria-label="+" d="m 40.207134,12.779634 v 1.682585 h 1.686374 v 0.644233 h -1.686374 v 1.682584 H 39.57048 v -1.682584 h -1.682584 v -0.644233 h 1.682584 v -1.682585 z" transform="translate(-9 -7)"/>
</svg>
